BekaMelayuNormal-Regular.ufo
<glyph name="exclam" format="2">
  <advance width="619"/>
  <unicode hex="0021"/>
  <outline>
    <contour>
      <point x="527" y="80" type="line"/>
      <point x="539" y="80"/>
      <point x="567" y="83"/>
      <point x="591" y="105" type="curve"/>
      <point x="611" y="124"/>
      <point x="621" y="151"/>
      <point x="621" y="185" type="curve"/>
      <point x="621" y="272"/>
      <point x="522" y="297"/>
      <point x="463" y="298" type="curve"/>
      <point x="402" y="298" type="line"/>
      <point x="328" y="384" type="line"/>
      <point x="520" y="384" type="line"/>
      <point x="537" y="384"/>
      <point x="550" y="398"/>
      <point x="550" y="414" type="curve"/>
      <point x="550" y="431"/>
      <point x="537" y="445"/>
      <point x="520" y="445" type="curve"/>
      <point x="262" y="445" type="line"/>
      <point x="250" y="445"/>
      <point x="239" y="438"/>
      <point x="234" y="427" type="curve"/>
      <point x="232" y="423"/>
      <point x="231" y="419"/>
      <point x="231" y="415" type="curve"/>
      <point x="231" y="408"/>
      <point x="234" y="401"/>
      <point x="239" y="395" type="curve"/>
      <point x="322" y="298" type="line"/>
      <point x="25" y="298" type="line"/>
      <point x="9" y="298"/>
      <point x="-5" y="284"/>
      <point x="-5" y="268" type="curve"/>
      <point x="-5" y="251"/>
      <point x="9" y="238"/>
      <point x="25" y="238" type="curve"/>
      <point x="374" y="238" type="line"/>
      <point x="500" y="90" type="line"/>
      <point x="506" y="84"/>
      <point x="513" y="80"/>
      <point x="522" y="80" type="curve"/>
    </contour>
    <contour>
      <point x="536" y="142" type="curve"/>
      <point x="454" y="237" type="line"/>
      <point x="462" y="237" type="line"/>
      <point x="463" y="237"/>
      <point x="560" y="233"/>
      <point x="560" y="186" type="curve"/>
      <point x="560" y="155"/>
      <point x="549" y="146"/>
    </contour>
  </outline>
</glyph>
<glyph name="parenleft" format="2">
  <advance width="597"/>
  <unicode hex="0028"/>
  <outline>
    <contour>
      <point x="44" y="33" type="curve"/>
      <point x="60" y="33"/>
      <point x="72" y="46"/>
      <point x="72" y="62" type="curve"/>
      <point x="72" y="209" type="line"/>
      <point x="548" y="209" type="line"/>
      <point x="563" y="209"/>
      <point x="576" y="221"/>
      <point x="576" y="237" type="curve"/>
      <point x="576" y="253"/>
      <point x="564" y="266"/>
      <point x="548" y="266" type="curve"/>
      <point x="72" y="266" type="line"/>
      <point x="72" y="374" type="line"/>
      <point x="164" y="384" type="line"/>
      <point x="179" y="386"/>
      <point x="189" y="399"/>
      <point x="189" y="413" type="curve"/>
      <point x="189" y="429"/>
      <point x="177" y="442"/>
      <point x="160" y="442" type="curve"/>
      <point x="40" y="428" type="line"/>
      <point x="26" y="427"/>
      <point x="15" y="415"/>
      <point x="15" y="400" type="curve"/>
      <point x="15" y="62" type="line"/>
      <point x="15" y="46"/>
      <point x="28" y="33"/>
    </contour>
  </outline>
</glyph>
<glyph name="parenright" format="2">
  <advance width="630"/>
  <unicode hex="0029"/>
  <outline>
    <contour>
      <point x="547" y="442" type="curve"/>
      <point x="531" y="442"/>
      <point x="519" y="429"/>
      <point x="519" y="413" type="curve"/>
      <point x="519" y="266" type="line"/>
      <point x="43" y="266" type="line"/>
      <point x="28" y="266"/>
      <point x="15" y="254"/>
      <point x="15" y="238" type="curve"/>
      <point x="15" y="222"/>
      <point x="27" y="209"/>
      <point x="43" y="209" type="curve"/>
      <point x="519" y="209" type="line"/>
      <point x="519" y="101" type="line"/>
      <point x="427" y="91" type="line"/>
      <point x="412" y="89"/>
      <point x="402" y="76"/>
      <point x="402" y="62" type="curve"/>
      <point x="402" y="46"/>
      <point x="414" y="33"/>
      <point x="431" y="33" type="curve"/>
      <point x="551" y="47" type="line"/>
      <point x="565" y="48"/>
      <point x="576" y="60"/>
      <point x="576" y="75" type="curve"/>
      <point x="576" y="413" type="line"/>
      <point x="576" y="429"/>
      <point x="563" y="442"/>
    </contour>
  </outline>
</glyph>
<glyph name="asterisk" format="2">
  <advance width="400"/>
  <unicode hex="002A"/>
  <outline>
    <contour>
      <point x="201" y="106" type="curve"/>
      <point x="212" y="106"/>
      <point x="221" y="113"/>
      <point x="222" y="123" type="curve"/>
      <point x="229" y="173" type="line"/>
      <point x="251" y="172" type="line"/>
      <point x="289" y="172"/>
      <point x="330" y="178"/>
      <point x="374" y="192" type="curve"/>
      <point x="384" y="195"/>
      <point x="389" y="203"/>
      <point x="389" y="212" type="curve"/>
      <point x="389" y="222"/>
      <point x="380" y="233"/>
      <point x="369" y="233" type="curve"/>
      <point x="363" y="232" type="line"/>
      <point x="321" y="219"/>
      <point x="282" y="213"/>
      <point x="247" y="213" type="curve"/>
      <point x="235" y="213" type="line"/>
      <point x="238" y="236" type="line"/>
      <point x="280" y="236"/>
      <point x="326" y="241"/>
      <point x="374" y="257" type="curve"/>
      <point x="384" y="259"/>
      <point x="389" y="267"/>
      <point x="389" y="276" type="curve"/>
      <point x="389" y="287"/>
      <point x="380" y="297"/>
      <point x="368" y="297" type="curve"/>
      <point x="363" y="296" type="line"/>
      <point x="321" y="283"/>
      <point x="280" y="278"/>
      <point x="243" y="278" type="curve"/>
      <point x="256" y="368" type="line"/>
      <point x="256" y="379"/>
      <point x="247" y="389"/>
      <point x="236" y="389" type="curve"/>
      <point x="226" y="389"/>
      <point x="217" y="382"/>
      <point x="214" y="372" type="curve"/>
      <point x="216" y="372" type="line"/>
      <point x="203" y="280" type="line"/>
      <point x="104" y="292"/>
      <point x="39" y="337"/>
      <point x="38" y="338" type="curve"/>
      <point x="34" y="340"/>
      <point x="30" y="342"/>
      <point x="26" y="342" type="curve"/>
      <point x="15" y="342"/>
      <point x="5" y="332"/>
      <point x="5" y="322" type="curve"/>
      <point x="5" y="315"/>
      <point x="8" y="309"/>
      <point x="14" y="304" type="curve"/>
      <point x="18" y="301"/>
      <point x="89" y="251"/>
      <point x="196" y="240" type="curve"/>
      <point x="193" y="217" type="line"/>
      <point x="100" y="230"/>
      <point x="39" y="272"/>
      <point x="38" y="274" type="curve"/>
      <point x="34" y="276"/>
      <point x="30" y="277"/>
      <point x="26" y="277" type="curve"/>
      <point x="15" y="277"/>
      <point x="5" y="268"/>
      <point x="5" y="257" type="curve"/>
      <point x="5" y="251"/>
      <point x="8" y="245"/>
      <point x="14" y="240" type="curve"/>
      <point x="18" y="237"/>
      <point x="85" y="190"/>
      <point x="188" y="175" type="curve"/>
      <point x="182" y="127" type="line"/>
      <point x="182" y="114"/>
      <point x="191" y="106"/>
    </contour>
  </outline>
</glyph>
<glyph name="comma" format="2">
  <advance width="553"/>
  <unicode hex="002C"/>
  <outline>
    <contour>
      <point x="474" y="124" type="line"/>
      <point x="482" y="124"/>
      <point x="511" y="125"/>
      <point x="534" y="146" type="curve"/>
      <point x="551" y="163"/>
      <point x="560" y="186"/>
      <point x="560" y="217" type="curve"/>
      <point x="560" y="292"/>
      <point x="474" y="314"/>
      <point x="422" y="315" type="curve"/>
      <point x="36" y="315" type="line"/>
      <point x="21" y="315"/>
      <point x="10" y="303"/>
      <point x="10" y="288" type="curve"/>
      <point x="10" y="274"/>
      <point x="21" y="262"/>
      <point x="36" y="262" type="curve"/>
      <point x="344" y="262" type="line"/>
      <point x="455" y="133" type="line"/>
    </contour>
    <contour>
      <point x="486" y="178" type="line"/>
      <point x="414" y="262" type="line"/>
      <point x="421" y="262" type="line"/>
      <point x="422" y="262"/>
      <point x="507" y="258"/>
      <point x="507" y="217" type="curve"/>
      <point x="497" y="185" type="line"/>
    </contour>
  </outline>
</glyph>
<glyph name="period" format="2">
  <advance width="704"/>
  <unicode hex="002E"/>
  <outline>
    <contour>
      <point x="561" y="153" type="curve"/>
      <point x="483" y="244" type="line"/>
      <point x="490" y="244" type="line"/>
      <point x="491" y="244"/>
      <point x="584" y="239"/>
      <point x="584" y="194" type="curve"/>
      <point x="584" y="166"/>
      <point x="573" y="157"/>
    </contour>
    <contour>
      <point x="550" y="94" type="curve"/>
      <point x="560" y="94"/>
      <point x="590" y="95"/>
      <point x="613" y="118" type="curve"/>
      <point x="632" y="136"/>
      <point x="642" y="162"/>
      <point x="642" y="194" type="curve"/>
      <point x="642" y="276"/>
      <point x="547" y="300"/>
      <point x="491" y="301" type="curve"/>
      <point x="433" y="301" type="line"/>
      <point x="322" y="431" type="line"/>
      <point x="316" y="438"/>
      <point x="308" y="441"/>
      <point x="300" y="441" type="curve"/>
      <point x="284" y="441"/>
      <point x="271" y="428"/>
      <point x="271" y="413" type="curve"/>
      <point x="271" y="406"/>
      <point x="273" y="399"/>
      <point x="278" y="394" type="curve"/>
      <point x="357" y="301" type="line"/>
      <point x="71" y="301" type="line"/>
      <point x="55" y="301"/>
      <point x="42" y="289"/>
      <point x="42" y="273" type="curve"/>
      <point x="42" y="257"/>
      <point x="55" y="244"/>
      <point x="71" y="244" type="curve"/>
      <point x="407" y="244" type="line"/>
      <point x="527" y="104" type="line"/>
      <point x="527" y="104"/>
      <point x="533" y="94"/>
    </contour>
  </outline>
</glyph>
<glyph name="zero" format="2">
  <advance width="422"/>
  <unicode hex="0030"/>
  <outline>
    <contour>
      <point x="386" y="162" type="curve"/>
      <point x="386" y="172"/>
      <point x="380" y="181"/>
      <point x="371" y="186" type="curve"/>
      <point x="247" y="255" type="line"/>
      <point x="316" y="380" type="line"/>
      <point x="319" y="383"/>
      <point x="320" y="387"/>
      <point x="320" y="392" type="curve"/>
      <point x="320" y="405"/>
      <point x="309" y="419"/>
      <point x="292" y="419" type="curve"/>
      <point x="283" y="419"/>
      <point x="274" y="414"/>
      <point x="269" y="405" type="curve"/>
      <point x="200" y="281" type="line"/>
      <point x="76" y="350" type="line"/>
      <point x="72" y="352"/>
      <point x="67" y="353"/>
      <point x="63" y="353" type="curve"/>
      <point x="47" y="353"/>
      <point x="36" y="341"/>
      <point x="36" y="327" type="curve"/>
      <point x="36" y="318"/>
      <point x="41" y="308"/>
      <point x="50" y="303" type="curve"/>
      <point x="175" y="235" type="line"/>
      <point x="106" y="110" type="line"/>
      <point x="104" y="105"/>
      <point x="103" y="101"/>
      <point x="103" y="96" type="curve"/>
      <point x="103" y="82"/>
      <point x="115" y="70"/>
      <point x="129" y="70" type="curve"/>
      <point x="139" y="70"/>
      <point x="148" y="75"/>
      <point x="152" y="84" type="curve"/>
      <point x="221" y="209" type="line"/>
      <point x="345" y="140" type="line"/>
      <point x="350" y="137"/>
      <point x="354" y="136"/>
      <point x="359" y="136" type="curve"/>
      <point x="374" y="136"/>
      <point x="386" y="148"/>
    </contour>
  </outline>
</glyph>
<glyph name="one" format="2">
  <advance width="289"/>
  <unicode hex="0031"/>
  <outline>
    <contour>
      <point x="238" y="21" type="curve"/>
      <point x="224" y="21"/>
      <point x="209" y="25"/>
      <point x="206" y="43" type="curve"/>
      <point x="179" y="179"/>
      <point x="171" y="277"/>
      <point x="171" y="346" type="curve"/>
      <point x="172" y="392" type="line"/>
      <point x="69" y="284" type="line"/>
      <point x="64" y="278"/>
      <point x="57" y="276"/>
      <point x="49" y="276" type="curve"/>
      <point x="34" y="276"/>
      <point x="22" y="288"/>
      <point x="22" y="303" type="curve"/>
      <point x="22" y="309"/>
      <point x="25" y="316"/>
      <point x="30" y="321" type="curve"/>
      <point x="192" y="491" type="line"/>
      <point x="197" y="496"/>
      <point x="204" y="499"/>
      <point x="212" y="499" type="curve"/>
      <point x="226" y="499"/>
      <point x="239" y="487"/>
      <point x="239" y="472" type="curve"/>
      <point x="237" y="463" type="line"/>
      <point x="236" y="462"/>
      <point x="225" y="430"/>
      <point x="225" y="349" type="curve"/>
      <point x="225" y="284"/>
      <point x="232" y="188"/>
      <point x="259" y="53" type="curve"/>
      <point x="260" y="48" type="line"/>
      <point x="260" y="36"/>
      <point x="250" y="24"/>
    </contour>
  </outline>
</glyph>
<glyph name="two" format="2">
  <advance width="435"/>
  <unicode hex="0032"/>
  <outline>
    <contour>
      <point x="154" y="57" type="line"/>
      <point x="153" y="39"/>
      <point x="166" y="24"/>
      <point x="184" y="23" type="curve"/>
      <point x="185" y="23"/>
      <point x="185" y="23"/>
      <point x="186" y="23" type="curve"/>
      <point x="202" y="23"/>
      <point x="216" y="36"/>
      <point x="217" y="53" type="curve"/>
      <point x="229" y="272" type="line"/>
      <point x="279" y="270"/>
      <point x="331" y="260"/>
      <point x="373" y="237" type="curve"/>
      <point x="378" y="235"/>
      <point x="383" y="233"/>
      <point x="388" y="233" type="curve"/>
      <point x="399" y="233"/>
      <point x="410" y="239"/>
      <point x="416" y="250" type="curve"/>
      <point x="425" y="265"/>
      <point x="419" y="285"/>
      <point x="404" y="293" type="curve"/>
      <point x="352" y="321"/>
      <point x="290" y="332"/>
      <point x="233" y="335" type="curve"/>
      <point x="237" y="428" type="line"/>
      <point x="281" y="470" type="line"/>
      <point x="293" y="483"/>
      <point x="294" y="503"/>
      <point x="281" y="515" type="curve"/>
      <point x="271" y="526"/>
      <point x="255" y="527"/>
      <point x="242" y="519" type="curve"/>
      <point x="242" y="536"/>
      <point x="229" y="550"/>
      <point x="212" y="551" type="curve"/>
      <point x="194" y="552"/>
      <point x="180" y="538"/>
      <point x="179" y="521" type="curve"/>
      <point x="175" y="456" type="line"/>
      <point x="24" y="310" type="line"/>
      <point x="14" y="300"/>
      <point x="12" y="284"/>
      <point x="19" y="272" type="curve"/>
      <point x="25" y="259"/>
      <point x="40" y="253"/>
      <point x="54" y="256" type="curve"/>
      <point x="55" y="256"/>
      <point x="103" y="267"/>
      <point x="165" y="271" type="curve"/>
      <point x="154" y="56" type="line"/>
    </contour>
    <contour>
      <point x="122" y="321" type="curve"/>
      <point x="178" y="401" type="line"/>
      <point x="174" y="325" type="line"/>
      <point x="156" y="324"/>
      <point x="138" y="323"/>
    </contour>
  </outline>
</glyph>
<glyph name="three" format="2">
  <advance width="419"/>
  <unicode hex="0033"/>
  <outline>
    <contour>
      <point x="189" y="530" type="line"/>
      <point x="180" y="541"/>
      <point x="164" y="542"/>
      <point x="152" y="535" type="curve"/>
      <point x="140" y="527"/>
      <point x="135" y="512"/>
      <point x="140" y="499" type="curve"/>
      <point x="140" y="498"/>
      <point x="182" y="381"/>
      <point x="115" y="45" type="curve"/>
      <point x="112" y="29"/>
      <point x="123" y="13"/>
      <point x="139" y="10" type="curve"/>
      <point x="141" y="9"/>
      <point x="143" y="9"/>
      <point x="145" y="9" type="curve"/>
      <point x="159" y="9"/>
      <point x="171" y="19"/>
      <point x="174" y="33" type="curve"/>
      <point x="211" y="221"/>
      <point x="216" y="345"/>
      <point x="212" y="420" type="curve"/>
      <point x="326" y="301" type="line"/>
      <point x="337" y="289"/>
      <point x="356" y="288"/>
      <point x="368" y="300" type="curve"/>
      <point x="380" y="311"/>
      <point x="381" y="330"/>
      <point x="369" y="342" type="curve"/>
    </contour>
  </outline>
</glyph>
<glyph name="four" format="2">
  <advance width="476"/>
  <unicode hex="0034"/>
  <outline>
    <contour>
      <point x="263" y="4" type="curve"/>
      <point x="280" y="6"/>
      <point x="294" y="19"/>
      <point x="294" y="35" type="curve"/>
      <point x="283" y="260" type="line"/>
      <point x="347" y="257"/>
      <point x="398" y="245"/>
      <point x="398" y="245" type="curve"/>
      <point x="406" y="244" type="line"/>
      <point x="425" y="244"/>
      <point x="438" y="258"/>
      <point x="438" y="276" type="curve"/>
      <point x="438" y="283"/>
      <point x="436" y="290"/>
      <point x="432" y="296" type="curve"/>
      <point x="263" y="535" type="line"/>
      <point x="258" y="543"/>
      <point x="250" y="548"/>
      <point x="242" y="550" type="curve"/>
      <point x="232" y="550" type="line"/>
      <point x="226" y="550"/>
      <point x="220" y="545"/>
      <point x="219" y="545" type="curve"/>
      <point x="211" y="538" type="line"/>
      <point x="210" y="537" type="line"/>
      <point x="206" y="530" type="line"/>
      <point x="205" y="529" type="line"/>
      <point x="205" y="525" type="line"/>
      <point x="203" y="522" type="line"/>
      <point x="213" y="326" type="line"/>
      <point x="155" y="323"/>
      <point x="90" y="312"/>
      <point x="36" y="283" type="curve"/>
      <point x="25" y="277"/>
      <point x="20" y="266"/>
      <point x="20" y="254" type="curve"/>
      <point x="20" y="235"/>
      <point x="34" y="221"/>
      <point x="53" y="221" type="curve"/>
      <point x="57" y="221"/>
      <point x="62" y="223"/>
      <point x="69" y="226" type="curve"/>
      <point x="111" y="250"/>
      <point x="166" y="258"/>
      <point x="216" y="261" type="curve"/>
      <point x="229" y="35" type="line"/>
      <point x="229" y="6"/>
      <point x="263" y="4"/>
    </contour>
    <contour>
      <point x="333" y="322" type="line"/>
      <point x="279" y="327" type="line"/>
      <point x="275" y="405" type="line"/>
    </contour>
  </outline>
</glyph>
<glyph name="five" format="2">
  <advance width="413"/>
  <unicode hex="0035"/>
  <outline>
    <contour>
      <point x="193" y="-8" type="curve"/>
      <point x="203" y="-8"/>
      <point x="213" y="-2"/>
      <point x="218" y="8" type="curve"/>
      <point x="242" y="60"/>
      <point x="247" y="157"/>
      <point x="247" y="231" type="curve"/>
      <point x="247" y="269"/>
      <point x="246" y="300"/>
      <point x="245" y="318" type="curve"/>
      <point x="260" y="330"/>
      <point x="277" y="338"/>
      <point x="277" y="356" type="curve"/>
      <point x="277" y="371"/>
      <point x="265" y="384"/>
      <point x="249" y="384" type="curve"/>
      <point x="243" y="384"/>
      <point x="237" y="382"/>
      <point x="232" y="378" type="curve"/>
      <point x="200" y="352" type="line"/>
      <point x="71" y="253" type="line"/>
      <point x="64" y="248"/>
      <point x="60" y="239"/>
      <point x="60" y="231" type="curve"/>
      <point x="60" y="215"/>
      <point x="73" y="204"/>
      <point x="88" y="204" type="curve"/>
      <point x="94" y="204"/>
      <point x="100" y="206"/>
      <point x="105" y="210" type="curve"/>
      <point x="191" y="276" type="line"/>
      <point x="192" y="225" type="line"/>
      <point x="192" y="154"/>
      <point x="186" y="72"/>
      <point x="168" y="31" type="curve"/>
      <point x="166" y="27"/>
      <point x="165" y="23"/>
      <point x="165" y="19" type="curve"/>
      <point x="165" y="4"/>
      <point x="179" y="-8"/>
    </contour>
  </outline>
</glyph>
<glyph name="six" format="2">
  <advance width="423"/>
  <unicode hex="0036"/>
  <outline>
    <contour>
      <point x="212" y="20" type="curve"/>
      <point x="228" y="20"/>
      <point x="241" y="33"/>
      <point x="241" y="48" type="curve"/>
      <point x="241" y="412" type="line"/>
      <point x="254" y="414"/>
      <point x="268" y="416"/>
      <point x="283" y="416" type="curve"/>
      <point x="317" y="416"/>
      <point x="355" y="409"/>
      <point x="396" y="395" type="curve"/>
      <point x="400" y="393"/>
      <point x="404" y="392"/>
      <point x="407" y="392" type="curve"/>
      <point x="424" y="392"/>
      <point x="434" y="406"/>
      <point x="434" y="421" type="curve"/>
      <point x="434" y="432"/>
      <point x="428" y="443"/>
      <point x="415" y="447" type="curve"/>
      <point x="367" y="464"/>
      <point x="322" y="471"/>
      <point x="282" y="471" type="curve"/>
      <point x="256" y="471"/>
      <point x="231" y="468"/>
      <point x="209" y="462" type="curve"/>
      <point x="206" y="462"/>
      <point x="203" y="462"/>
      <point x="201" y="461" type="curve"/>
      <point x="64" y="426"/>
      <point x="-5" y="311"/>
      <point x="-7" y="308" type="curve"/>
      <point x="-9" y="304"/>
      <point x="-10" y="299"/>
      <point x="-10" y="294" type="curve"/>
      <point x="-10" y="278"/>
      <point x="-1" y="267"/>
      <point x="19" y="267" type="curve"/>
      <point x="28" y="267"/>
      <point x="36" y="272"/>
      <point x="42" y="280" type="curve"/>
      <point x="45" y="286"/>
      <point x="91" y="362"/>
      <point x="184" y="398" type="curve"/>
      <point x="184" y="48" type="line"/>
      <point x="184" y="33"/>
      <point x="196" y="20"/>
    </contour>
  </outline>
</glyph>
<glyph name="seven" format="2">
  <advance width="451"/>
  <unicode hex="0037"/>
  <outline>
    <contour>
      <point x="90" y="2" type="line"/>
      <point x="107" y="2"/>
      <point x="121" y="16"/>
      <point x="123" y="33" type="curve"/>
      <point x="135" y="455" type="line"/>
      <point x="200" y="434"/>
      <point x="328" y="371"/>
      <point x="360" y="197" type="curve"/>
      <point x="362" y="181"/>
      <point x="376" y="170"/>
      <point x="391" y="170" type="curve"/>
      <point x="409" y="170"/>
      <point x="423" y="187"/>
      <point x="423" y="203" type="curve"/>
      <point x="423" y="208" type="line"/>
      <point x="373" y="484"/>
      <point x="113" y="529"/>
      <point x="110" y="529" type="curve"/>
      <point x="102" y="530" type="line"/>
      <point x="85" y="530"/>
      <point x="74" y="513"/>
      <point x="72" y="499" type="curve"/>
      <point x="58" y="33" type="line"/>
      <point x="58" y="16"/>
      <point x="72" y="3"/>
      <point x="89" y="2" type="curve"/>
    </contour>
  </outline>
</glyph>
<glyph name="eight" format="2">
  <advance width="420"/>
  <unicode hex="0038"/>
  <outline>
    <contour>
      <point x="211" y="20" type="curve"/>
      <point x="227" y="20"/>
      <point x="240" y="33"/>
      <point x="240" y="48" type="curve"/>
      <point x="240" y="398" type="line"/>
      <point x="333" y="362"/>
      <point x="378" y="286"/>
      <point x="381" y="280" type="curve"/>
      <point x="388" y="272"/>
      <point x="396" y="267"/>
      <point x="405" y="267" type="curve"/>
      <point x="425" y="267"/>
      <point x="434" y="278"/>
      <point x="434" y="294" type="curve"/>
      <point x="434" y="299"/>
      <point x="433" y="304"/>
      <point x="430" y="308" type="curve"/>
      <point x="429" y="311"/>
      <point x="359" y="426"/>
      <point x="222" y="461" type="curve"/>
      <point x="221" y="462"/>
      <point x="218" y="462"/>
      <point x="215" y="462" type="curve"/>
      <point x="192" y="468"/>
      <point x="168" y="471"/>
      <point x="142" y="471" type="curve"/>
      <point x="101" y="471"/>
      <point x="57" y="464"/>
      <point x="8" y="447" type="curve"/>
      <point x="-4" y="443"/>
      <point x="-10" y="432"/>
      <point x="-10" y="421" type="curve"/>
      <point x="-10" y="406"/>
      <point x="-1" y="392"/>
      <point x="16" y="392" type="curve"/>
      <point x="20" y="392"/>
      <point x="24" y="393"/>
      <point x="27" y="395" type="curve"/>
      <point x="69" y="409"/>
      <point x="107" y="416"/>
      <point x="141" y="416" type="curve"/>
      <point x="156" y="416"/>
      <point x="170" y="414"/>
      <point x="183" y="412" type="curve"/>
      <point x="183" y="48" type="line"/>
      <point x="183" y="33"/>
      <point x="196" y="20"/>
    </contour>
  </outline>
</glyph>
<glyph name="nine" format="2">
  <advance width="423"/>
  <unicode hex="0039"/>
  <outline>
    <contour>
      <point x="154" y="-8" type="curve"/>
      <point x="201" y="-8"/>
      <point x="234" y="87"/>
      <point x="237" y="117" type="curve"/>
      <point x="336" y="130"/>
      <point x="410" y="215"/>
      <point x="410" y="316" type="curve"/>
      <point x="410" y="427"/>
      <point x="319" y="518"/>
      <point x="209" y="518" type="curve"/>
      <point x="97" y="518"/>
      <point x="7" y="427"/>
      <point x="7" y="316" type="curve"/>
      <point x="7" y="216"/>
      <point x="79" y="134"/>
      <point x="173" y="117" type="curve"/>
      <point x="167" y="93"/>
      <point x="157" y="65"/>
      <point x="136" y="52" type="curve"/>
      <point x="126" y="46"/>
      <point x="121" y="36"/>
      <point x="121" y="25" type="curve"/>
      <point x="121" y="8"/>
      <point x="136" y="-8"/>
    </contour>
    <contour>
      <point x="176" y="182" type="line"/>
      <point x="116" y="197"/>
      <point x="71" y="251"/>
      <point x="71" y="315" type="curve"/>
      <point x="71" y="380"/>
      <point x="116" y="434"/>
      <point x="176" y="449" type="curve"/>
    </contour>
    <contour>
      <point x="241" y="182" type="curve"/>
      <point x="241" y="449" type="line"/>
      <point x="301" y="434"/>
      <point x="346" y="380"/>
      <point x="346" y="316" type="curve"/>
      <point x="346" y="251"/>
      <point x="301" y="197"/>
    </contour>
  </outline>
</glyph>
<glyph name="colon" format="2">
  <advance width="603"/>
  <unicode hex="003A"/>
  <outline>
    <contour>
      <point x="241" y="307" type="line"/>
      <point x="92" y="307" type="line"/>
      <point x="76" y="307"/>
      <point x="64" y="295"/>
      <point x="64" y="279" type="curve"/>
      <point x="64" y="263"/>
      <point x="76" y="251"/>
      <point x="92" y="251" type="curve"/>
      <point x="237" y="251" type="line"/>
      <point x="277" y="199"/>
      <point x="343" y="124"/>
      <point x="386" y="124" type="curve"/>
      <point x="508" y="124" type="line"/>
      <point x="523" y="124"/>
      <point x="536" y="137"/>
      <point x="536" y="152" type="curve"/>
      <point x="536" y="168"/>
      <point x="523" y="180"/>
      <point x="508" y="180" type="curve"/>
      <point x="387" y="180" type="line"/>
      <point x="372" y="184"/>
      <point x="329" y="226"/>
      <point x="289" y="277" type="curve"/>
      <point x="330" y="329"/>
      <point x="376" y="374"/>
      <point x="390" y="378" type="curve"/>
      <point x="512" y="378" type="line"/>
      <point x="527" y="378"/>
      <point x="540" y="390"/>
      <point x="540" y="406" type="curve"/>
      <point x="540" y="421"/>
      <point x="527" y="434"/>
      <point x="512" y="434" type="curve"/>
      <point x="390" y="434" type="line"/>
      <point x="347" y="434"/>
      <point x="281" y="359"/>
      <point x="241" y="307" type="curve"/>
    </contour>
  </outline>
</glyph>
<glyph name="semicolon" format="2">
  <advance width="484"/>
  <unicode hex="003B"/>
  <outline>
    <contour>
      <point x="394" y="115" type="curve"/>
      <point x="402" y="115"/>
      <point x="434" y="116"/>
      <point x="459" y="139" type="curve"/>
      <point x="478" y="158"/>
      <point x="488" y="183"/>
      <point x="488" y="216" type="curve"/>
      <point x="488" y="298"/>
      <point x="394" y="322"/>
      <point x="337" y="323" type="curve"/>
      <point x="30" y="323" type="line"/>
      <point x="14" y="323"/>
      <point x="1" y="311"/>
      <point x="1" y="295" type="curve"/>
      <point x="1" y="279"/>
      <point x="14" y="266"/>
      <point x="30" y="266" type="curve"/>
      <point x="252" y="266" type="line"/>
      <point x="373" y="125" type="line"/>
      <point x="373" y="125"/>
      <point x="378" y="115"/>
    </contour>
    <contour>
      <point x="407" y="175" type="curve"/>
      <point x="329" y="266" type="line"/>
      <point x="337" y="266" type="line"/>
      <point x="337" y="266"/>
      <point x="430" y="261"/>
      <point x="430" y="216" type="curve"/>
      <point x="430" y="187"/>
      <point x="419" y="178"/>
    </contour>
    <contour>
      <point x="255" y="116" type="curve"/>
      <point x="273" y="116"/>
      <point x="283" y="128"/>
      <point x="283" y="144" type="curve"/>
      <point x="283" y="156"/>
      <point x="276" y="168"/>
      <point x="263" y="172" type="curve"/>
      <point x="122" y="218" type="line"/>
      <point x="119" y="219"/>
      <point x="116" y="219"/>
      <point x="113" y="219" type="curve"/>
      <point x="101" y="219"/>
      <point x="89" y="212"/>
      <point x="85" y="200" type="curve"/>
      <point x="86" y="200" type="line"/>
      <point x="85" y="197"/>
      <point x="85" y="194"/>
      <point x="85" y="191" type="curve"/>
      <point x="85" y="179"/>
      <point x="92" y="168"/>
      <point x="104" y="164" type="curve"/>
      <point x="245" y="117" type="line"/>
      <point x="248" y="116"/>
      <point x="251" y="116"/>
    </contour>
  </outline>
</glyph>
<glyph name="question" format="2">
  <advance width="640"/>
  <unicode hex="003F"/>
  <outline>
    <contour>
      <point x="532" y="36" type="curve"/>
      <point x="541" y="36"/>
      <point x="573" y="37"/>
      <point x="598" y="61" type="curve"/>
      <point x="618" y="80"/>
      <point x="628" y="106"/>
      <point x="628" y="140" type="curve"/>
      <point x="628" y="225"/>
      <point x="531" y="250"/>
      <point x="472" y="252" type="curve"/>
      <point x="412" y="252" type="line"/>
      <point x="296" y="387" type="line"/>
      <point x="291" y="394"/>
      <point x="282" y="397"/>
      <point x="274" y="397" type="curve"/>
      <point x="258" y="397"/>
      <point x="243" y="384"/>
      <point x="243" y="367" type="curve"/>
      <point x="243" y="360"/>
      <point x="246" y="353"/>
      <point x="251" y="347" type="curve"/>
      <point x="333" y="252" type="line"/>
      <point x="39" y="252" type="line"/>
      <point x="23" y="252"/>
      <point x="9" y="238"/>
      <point x="9" y="222" type="curve"/>
      <point x="9" y="205"/>
      <point x="23" y="191"/>
      <point x="39" y="191" type="curve"/>
      <point x="384" y="191" type="line"/>
      <point x="509" y="46" type="line"/>
      <point x="509" y="46"/>
      <point x="511" y="36"/>
    </contour>
    <contour>
      <point x="544" y="97" type="curve"/>
      <point x="463" y="192" type="line"/>
      <point x="471" y="192" type="line"/>
      <point x="472" y="192"/>
      <point x="569" y="187"/>
      <point x="569" y="140" type="curve"/>
      <point x="569" y="111"/>
      <point x="557" y="101"/>
    </contour>
    <contour>
      <point x="522" y="294" type="curve"/>
      <point x="539" y="294"/>
      <point x="552" y="307"/>
      <point x="552" y="324" type="curve"/>
      <point x="552" y="332"/>
      <point x="549" y="338"/>
      <point x="544" y="344" type="curve"/>
      <point x="445" y="459" type="line"/>
      <point x="440" y="466"/>
      <point x="432" y="469"/>
      <point x="423" y="469" type="curve"/>
      <point x="406" y="469"/>
      <point x="394" y="456"/>
      <point x="394" y="439" type="curve"/>
      <point x="394" y="432"/>
      <point x="396" y="425"/>
      <point x="400" y="420" type="curve"/>
      <point x="499" y="306" type="line"/>
      <point x="505" y="298"/>
      <point x="514" y="294"/>
    </contour>
  </outline>
</glyph>
<glyph name="A" format="2">
  <advance width="739"/>
  <unicode hex="0041"/>
  <outline>
    <contour>
      <point x="650" y="230" type="line"/>
      <point x="650" y="103"/>
      <point x="524" y="96"/>
      <point x="510" y="96" type="curve"/>
      <point x="490" y="95"/>
      <point x="475" y="80"/>
      <point x="475" y="61" type="curve"/>
      <point x="475" y="60" type="line"/>
      <point x="476" y="41"/>
      <point x="491" y="25"/>
      <point x="511" y="26" type="curve"/>
      <point x="583" y="27"/>
      <point x="721" y="71"/>
      <point x="721" y="230" type="curve"/>
      <point x="721" y="389"/>
      <point x="583" y="434"/>
      <point x="510" y="434" type="curve"/>
      <point x="362" y="434"/>
      <point x="306" y="338"/>
      <point x="292" y="265" type="curve"/>
      <point x="52" y="265" type="line"/>
      <point x="32" y="265"/>
      <point x="17" y="250"/>
      <point x="17" y="230" type="curve"/>
      <point x="17" y="211"/>
      <point x="32" y="195"/>
      <point x="52" y="195" type="curve"/>
      <point x="324" y="195" type="line"/>
      <point x="343" y="195"/>
      <point x="359" y="211"/>
      <point x="359" y="230" type="curve"/>
      <point x="359" y="236"/>
      <point x="361" y="364"/>
      <point x="510" y="364" type="curve"/>
      <point x="524" y="364"/>
      <point x="650" y="359"/>
      <point x="650" y="231" type="curve"/>
    </contour>
  </outline>
</glyph>
<glyph name="B" format="2">
  <advance width="751"/>
  <unicode hex="0042"/>
  <outline>
    <contour>
      <point x="732" y="253" type="curve"/>
      <point x="732" y="278"/>
      <point x="720" y="290"/>
      <point x="696" y="290" type="curve"/>
      <point x="414" y="290" type="line"/>
      <point x="390" y="400"/>
      <point x="304" y="485"/>
      <point x="182" y="485" type="curve"/>
      <point x="101" y="485"/>
      <point x="14" y="445"/>
      <point x="14" y="394" type="curve"/>
      <point x="14" y="377"/>
      <point x="22" y="354"/>
      <point x="48" y="354" type="curve"/>
      <point x="95" y="354"/>
      <point x="83" y="412"/>
      <point x="182" y="412" type="curve"/>
      <point x="280" y="412"/>
      <point x="341" y="339"/>
      <point x="341" y="253" type="curve"/>
      <point x="341" y="168"/>
      <point x="280" y="106"/>
      <point x="182" y="106" type="curve"/>
      <point x="81" y="106"/>
      <point x="72" y="161"/>
      <point x="48" y="161" type="curve"/>
      <point x="34" y="161"/>
      <point x="14" y="141"/>
      <point x="14" y="119" type="curve"/>
      <point x="14" y="56"/>
      <point x="179" y="33"/>
      <point x="182" y="33" type="curve"/>
      <point x="304" y="33"/>
      <point x="390" y="119"/>
      <point x="414" y="216" type="curve"/>
      <point x="696" y="216" type="line"/>
      <point x="720" y="216"/>
      <point x="732" y="241"/>
    </contour>
  </outline>
</glyph>
<glyph name="C" format="2">
  <advance width="792"/>
  <unicode hex="0043"/>
  <outline>
    <contour>
      <point x="265" y="97" type="curve"/>
      <point x="265" y="78"/>
      <point x="281" y="63"/>
      <point x="300" y="63" type="curve"/>
      <point x="423" y="63" type="line"/>
      <point x="430" y="63"/>
      <point x="438" y="65"/>
      <point x="444" y="70" type="curve"/>
      <point x="611" y="201" type="line"/>
      <point x="734" y="201" type="line"/>
      <point x="753" y="201"/>
      <point x="768" y="216"/>
      <point x="768" y="235" type="curve"/>
      <point x="768" y="254"/>
      <point x="753" y="270"/>
      <point x="734" y="270" type="curve"/>
      <point x="599" y="270" type="line"/>
      <point x="591" y="270"/>
      <point x="584" y="267"/>
      <point x="578" y="262" type="curve"/>
      <point x="411" y="132" type="line"/>
      <point x="300" y="132" type="line"/>
      <point x="281" y="132"/>
      <point x="265" y="116"/>
    </contour>
    <contour>
      <point x="469" y="324" type="curve"/>
      <point x="467" y="389"/>
      <point x="388" y="419"/>
      <point x="363" y="429" type="curve"/>
      <point x="358" y="431"/>
      <point x="354" y="432"/>
      <point x="350" y="432" type="curve"/>
      <point x="283" y="432" type="line"/>
      <point x="273" y="432"/>
      <point x="264" y="428"/>
      <point x="257" y="421" type="curve"/>
      <point x="251" y="415"/>
      <point x="247" y="406"/>
      <point x="247" y="396" type="curve"/>
      <point x="248" y="273" type="line"/>
      <point x="51" y="273" type="line"/>
      <point x="31" y="273"/>
      <point x="15" y="257"/>
      <point x="15" y="237" type="curve"/>
      <point x="15" y="217"/>
      <point x="31" y="201"/>
      <point x="51" y="201" type="curve"/>
      <point x="350" y="201" type="line"/>
      <point x="355" y="201"/>
      <point x="360" y="202"/>
      <point x="365" y="204" type="curve"/>
      <point x="382" y="212"/>
      <point x="469" y="255"/>
      <point x="469" y="322" type="curve"/>
      <point x="469" y="323"/>
      <point x="469" y="323"/>
    </contour>
    <contour>
      <point x="342" y="273" type="line"/>
      <point x="320" y="273" type="line"/>
      <point x="320" y="273"/>
      <point x="319" y="360"/>
      <point x="319" y="360" type="curve"/>
      <point x="343" y="360" type="line"/>
      <point x="387" y="342"/>
      <point x="397" y="327"/>
      <point x="398" y="322" type="curve"/>
      <point x="398" y="322"/>
      <point x="398" y="322"/>
      <point x="398" y="322" type="curve"/>
      <point x="398" y="311"/>
      <point x="371" y="288"/>
      <point x="342" y="273" type="curve"/>
    </contour>
  </outline>
</glyph>
<glyph name="D" format="2">
  <advance width="792"/>
  <unicode hex="0044"/>
  <outline>
    <contour>
      <point x="38" y="256" type="curve"/>
      <point x="38" y="132"/>
      <point x="139" y="31"/>
      <point x="263" y="31" type="curve"/>
      <point x="374" y="31"/>
      <point x="467" y="113"/>
      <point x="484" y="220" type="curve"/>
      <point x="724" y="220" type="line"/>
      <point x="744" y="220"/>
      <point x="759" y="236"/>
      <point x="759" y="256" type="curve"/>
      <point x="759" y="276"/>
      <point x="743" y="292"/>
      <point x="724" y="292" type="curve"/>
      <point x="484" y="292" type="line"/>
      <point x="467" y="398"/>
      <point x="374" y="480"/>
      <point x="263" y="480" type="curve"/>
      <point x="139" y="480"/>
      <point x="38" y="380"/>
    </contour>
    <contour>
      <point x="415" y="256" type="curve"/>
      <point x="415" y="172"/>
      <point x="347" y="104"/>
      <point x="263" y="104" type="curve"/>
      <point x="179" y="104"/>
      <point x="110" y="172"/>
      <point x="110" y="256" type="curve"/>
      <point x="110" y="340"/>
      <point x="179" y="409"/>
      <point x="263" y="409" type="curve"/>
      <point x="347" y="409"/>
      <point x="415" y="340"/>
    </contour>
    <contour>
      <point x="304" y="256" type="curve"/>
      <point x="304" y="279"/>
      <point x="285" y="297"/>
      <point x="263" y="297" type="curve"/>
      <point x="240" y="297"/>
      <point x="222" y="279"/>
      <point x="222" y="256" type="curve"/>
      <point x="222" y="234"/>
      <point x="240" y="215"/>
      <point x="263" y="215" type="curve"/>
      <point x="285" y="215"/>
      <point x="304" y="234"/>
    </contour>
  </outline>
</glyph>
<glyph name="E" format="2">
  <advance width="845"/>
  <unicode hex="0045"/>
  <outline>
    <contour>
      <point x="536" y="25" type="line"/>
      <point x="513" y="33" type="line"/>
      <point x="321" y="210" type="line"/>
      <point x="66" y="210" type="line"/>
      <point x="46" y="210"/>
      <point x="30" y="226"/>
      <point x="30" y="245" type="curve"/>
      <point x="30" y="265"/>
      <point x="46" y="281"/>
      <point x="66" y="281" type="curve"/>
      <point x="497" y="281" type="line"/>
      <point x="494" y="441" type="line"/>
      <point x="494" y="463"/>
      <point x="512" y="476"/>
      <point x="532" y="476" type="curve"/>
      <point x="550" y="476"/>
      <point x="565" y="461"/>
      <point x="565" y="442" type="curve"/>
      <point x="567" y="282" type="line"/>
      <point x="774" y="282" type="line"/>
      <point x="794" y="282"/>
      <point x="810" y="265"/>
      <point x="810" y="245" type="curve"/>
      <point x="810" y="226"/>
      <point x="794" y="210"/>
      <point x="774" y="210" type="curve"/>
      <point x="569" y="210" type="line"/>
      <point x="569" y="46" type="line"/>
    </contour>
    <contour>
      <point x="499" y="142" type="line"/>
      <point x="498" y="211" type="line"/>
      <point x="425" y="211" type="line"/>
    </contour>
  </outline>
</glyph>
<glyph name="G" format="2">
  <advance width="826"/>
  <unicode hex="0047"/>
  <outline>
    <contour>
      <point x="766" y="160" type="curve"/>
      <point x="459" y="160" type="line"/>
      <point x="438" y="160"/>
      <point x="420" y="180"/>
      <point x="420" y="202" type="curve"/>
      <point x="420" y="226"/>
      <point x="438" y="244"/>
      <point x="459" y="244" type="curve"/>
      <point x="579" y="244" type="line"/>
      <point x="585" y="255"/>
      <point x="591" y="271"/>
      <point x="591" y="290" type="curve"/>
      <point x="591" y="304"/>
      <point x="588" y="319"/>
      <point x="579" y="336" type="curve"/>
      <point x="468" y="336" type="line"/>
      <point x="181" y="165" type="line"/>
      <point x="176" y="162"/>
      <point x="169" y="160"/>
      <point x="163" y="160" type="curve"/>
      <point x="47" y="160" type="line"/>
      <point x="26" y="160"/>
      <point x="8" y="180"/>
      <point x="8" y="202" type="curve"/>
      <point x="8" y="226"/>
      <point x="26" y="244"/>
      <point x="47" y="244" type="curve"/>
      <point x="153" y="244" type="line"/>
      <point x="441" y="416" type="line"/>
      <point x="446" y="419"/>
      <point x="452" y="421"/>
      <point x="459" y="421" type="curve"/>
      <point x="600" y="421" type="line"/>
      <point x="613" y="421"/>
      <point x="625" y="415"/>
      <point x="631" y="403" type="curve"/>
      <point x="658" y="366"/>
      <point x="668" y="327"/>
      <point x="668" y="292" type="curve"/>
      <point x="668" y="275"/>
      <point x="665" y="259"/>
      <point x="662" y="244" type="curve"/>
      <point x="766" y="244" type="line"/>
      <point x="787" y="244"/>
      <point x="805" y="226"/>
      <point x="805" y="202" type="curve"/>
      <point x="805" y="180"/>
      <point x="787" y="160"/>
    </contour>
  </outline>
</glyph>
<glyph name="H" format="2">
  <advance width="782"/>
  <unicode hex="0048"/>
  <outline>
    <contour>
      <point x="537" y="43" type="curve"/>
      <point x="613" y="44"/>
      <point x="757" y="91"/>
      <point x="757" y="258" type="curve"/>
      <point x="757" y="425"/>
      <point x="612" y="471"/>
      <point x="536" y="471" type="curve"/>
      <point x="380" y="471"/>
      <point x="322" y="370"/>
      <point x="307" y="295" type="curve"/>
      <point x="55" y="295" type="line"/>
      <point x="35" y="295"/>
      <point x="18" y="278"/>
      <point x="18" y="258" type="curve"/>
      <point x="18" y="238"/>
      <point x="35" y="222"/>
      <point x="55" y="222" type="curve"/>
      <point x="341" y="222" type="line"/>
      <point x="361" y="222"/>
      <point x="377" y="238"/>
      <point x="377" y="258" type="curve"/>
      <point x="378" y="272"/>
      <point x="384" y="398"/>
      <point x="536" y="398" type="curve"/>
      <point x="542" y="398"/>
      <point x="683" y="397"/>
      <point x="683" y="258" type="curve"/>
      <point x="683" y="164"/>
      <point x="617" y="133"/>
      <point x="572" y="122" type="curve"/>
      <point x="572" y="258" type="line"/>
      <point x="572" y="278"/>
      <point x="556" y="294"/>
      <point x="536" y="294" type="curve"/>
      <point x="516" y="294"/>
      <point x="499" y="278"/>
      <point x="499" y="258" type="curve"/>
      <point x="499" y="80" type="line"/>
      <point x="499" y="59"/>
      <point x="516" y="43"/>
    </contour>
  </outline>
</glyph>
<glyph name="I" format="2">
  <advance width="616"/>
  <unicode hex="0049"/>
  <outline>
    <contour>
      <point x="398" y="80" type="curve"/>
      <point x="413" y="80"/>
      <point x="425" y="93"/>
      <point x="425" y="107" type="curve"/>
      <point x="425" y="134"/>
      <point x="388" y="140"/>
      <point x="373" y="228" type="curve"/>
      <point x="580" y="228" type="line"/>
      <point x="596" y="228"/>
      <point x="608" y="240"/>
      <point x="608" y="256" type="curve"/>
      <point x="608" y="270"/>
      <point x="596" y="282"/>
      <point x="580" y="282" type="curve"/>
      <point x="372" y="282" type="line"/>
      <point x="376" y="314"/>
      <point x="389" y="347"/>
      <point x="418" y="380" type="curve"/>
      <point x="422" y="386"/>
      <point x="424" y="392"/>
      <point x="424" y="398" type="curve"/>
      <point x="424" y="414"/>
      <point x="411" y="426"/>
      <point x="398" y="426" type="curve"/>
      <point x="390" y="426"/>
      <point x="383" y="423"/>
      <point x="377" y="416" type="curve"/>
      <point x="332" y="364"/>
      <point x="316" y="309"/>
      <point x="316" y="258" type="curve"/>
      <point x="316" y="256" type="line"/>
      <point x="316" y="247"/>
      <point x="319" y="221"/>
      <point x="319" y="221" type="curve"/>
      <point x="245" y="275"/>
      <point x="229" y="282"/>
      <point x="218" y="282" type="curve"/>
      <point x="39" y="282" type="line"/>
      <point x="23" y="282"/>
      <point x="11" y="270"/>
      <point x="11" y="256" type="curve"/>
      <point x="11" y="241"/>
      <point x="23" y="228"/>
      <point x="39" y="228" type="curve"/>
      <point x="210" y="228" type="line"/>
      <point x="247" y="207"/>
      <point x="324" y="155"/>
      <point x="363" y="110" type="curve"/>
      <point x="370" y="95"/>
      <point x="383" y="80"/>
    </contour>
    <contour>
      <point x="265" y="293" type="curve"/>
      <point x="279" y="293"/>
      <point x="292" y="306"/>
      <point x="292" y="321" type="curve"/>
      <point x="292" y="329"/>
      <point x="288" y="337"/>
      <point x="282" y="342" type="curve"/>
      <point x="194" y="411" type="line"/>
      <point x="189" y="415"/>
      <point x="183" y="417"/>
      <point x="177" y="417" type="curve"/>
      <point x="162" y="417"/>
      <point x="150" y="405"/>
      <point x="150" y="390" type="curve"/>
      <point x="150" y="382"/>
      <point x="154" y="374"/>
      <point x="161" y="368" type="curve"/>
      <point x="160" y="368" type="line"/>
      <point x="248" y="299" type="line"/>
      <point x="253" y="295"/>
      <point x="259" y="293"/>
    </contour>
  </outline>
</glyph>
<glyph name="J" format="2">
  <advance width="855"/>
  <unicode hex="004A"/>
  <outline>
    <contour>
      <point x="812" y="243" type="line"/>
      <point x="828" y="243"/>
      <point x="851" y="266"/>
      <point x="851" y="282" type="qcurve"/>
      <point x="851" y="298"/>
      <point x="828" y="321"/>
      <point x="812" y="321" type="qcurve"/>
      <point x="673" y="321" type="line"/>
      <point x="483" y="470" type="line"/>
      <point x="473" y="478"/>
      <point x="459" y="478" type="qcurve"/>
      <point x="319" y="478" type="line"/>
      <point x="303" y="478"/>
      <point x="280" y="455"/>
      <point x="280" y="439" type="qcurve"/>
      <point x="280" y="423"/>
      <point x="303" y="400"/>
      <point x="319" y="400" type="qcurve"/>
      <point x="446" y="400" type="line"/>
      <point x="635" y="251" type="line"/>
      <point x="646" y="243"/>
      <point x="659" y="243" type="qcurve"/>
    </contour>
    <contour>
      <point x="376" y="59" type="qcurve"/>
      <point x="301" y="59" type="line"/>
      <point x="284" y="59"/>
      <point x="260" y="83"/>
      <point x="260" y="100" type="qcurve"/>
      <point x="262" y="240" type="line"/>
      <point x="37" y="240" type="line"/>
      <point x="20" y="240"/>
      <point x="-4" y="263"/>
      <point x="-4" y="280" type="qcurve"/>
      <point x="-4" y="297"/>
      <point x="20" y="321"/>
      <point x="37" y="321" type="qcurve"/>
      <point x="385" y="321"/>
      <point x="405" y="313"/>
      <point x="461" y="278"/>
      <point x="512" y="221"/>
      <point x="512" y="184" type="qcurve"/>
      <point x="512" y="181" type="line"/>
      <point x="506" y="127"/>
      <point x="418" y="70"/>
      <point x="391" y="62" type="qcurve"/>
      <point x="384" y="59"/>
    </contour>
    <contour>
      <point x="369" y="140" type="line"/>
      <point x="406" y="156"/>
      <point x="431" y="180"/>
      <point x="431" y="184" type="qcurve"/>
      <point x="430" y="203"/>
      <point x="367" y="240" type="qcurve"/>
      <point x="343" y="240" type="line"/>
      <point x="342" y="140" type="line"/>
    </contour>
  </outline>
</glyph>
<glyph name="K" format="2">
  <advance width="782"/>
  <unicode hex="004B"/>
  <outline>
    <contour>
      <point x="9" y="258" type="curve"/>
      <point x="9" y="137"/>
      <point x="108" y="38"/>
      <point x="229" y="38" type="curve"/>
      <point x="288" y="38"/>
      <point x="344" y="61"/>
      <point x="385" y="102" type="curve"/>
      <point x="399" y="116"/>
      <point x="399" y="138"/>
      <point x="385" y="152" type="curve"/>
      <point x="372" y="165"/>
      <point x="349" y="165"/>
      <point x="336" y="152" type="curve"/>
      <point x="307" y="123"/>
      <point x="270" y="108"/>
      <point x="229" y="108" type="curve"/>
      <point x="146" y="108"/>
      <point x="79" y="175"/>
      <point x="79" y="258" type="curve"/>
      <point x="79" y="341"/>
      <point x="147" y="408"/>
      <point x="229" y="408" type="curve"/>
      <point x="270" y="408"/>
      <point x="307" y="393"/>
      <point x="337" y="363" type="curve"/>
      <point x="338" y="362"/>
      <point x="364" y="337"/>
      <point x="374" y="293" type="curve"/>
      <point x="202" y="293" type="line"/>
      <point x="183" y="293"/>
      <point x="167" y="277"/>
      <point x="167" y="258" type="curve"/>
      <point x="167" y="239"/>
      <point x="183" y="223"/>
      <point x="202" y="223" type="curve"/>
      <point x="739" y="223" type="line"/>
      <point x="759" y="223"/>
      <point x="774" y="239"/>
      <point x="774" y="258" type="curve"/>
      <point x="774" y="277"/>
      <point x="759" y="293"/>
      <point x="739" y="293" type="curve"/>
      <point x="445" y="293" type="line"/>
      <point x="433" y="370"/>
      <point x="387" y="413"/>
      <point x="385" y="414" type="curve"/>
      <point x="344" y="456"/>
      <point x="288" y="478"/>
      <point x="229" y="478" type="curve"/>
      <point x="108" y="479"/>
      <point x="9" y="380"/>
    </contour>
  </outline>
</glyph>
<glyph name="L" format="2">
  <advance width="803"/>
  <unicode hex="004C"/>
  <outline>
    <contour>
      <point x="774" y="258" type="curve"/>
      <point x="774" y="379"/>
      <point x="675" y="478"/>
      <point x="554" y="478" type="curve"/>
      <point x="495" y="478"/>
      <point x="439" y="455"/>
      <point x="398" y="414" type="curve"/>
      <point x="384" y="400"/>
      <point x="384" y="378"/>
      <point x="398" y="364" type="curve"/>
      <point x="411" y="351"/>
      <point x="434" y="351"/>
      <point x="447" y="364" type="curve"/>
      <point x="476" y="393"/>
      <point x="514" y="408"/>
      <point x="554" y="408" type="curve"/>
      <point x="637" y="408"/>
      <point x="704" y="341"/>
      <point x="704" y="258" type="curve"/>
      <point x="704" y="175"/>
      <point x="636" y="108"/>
      <point x="554" y="108" type="curve"/>
      <point x="514" y="108"/>
      <point x="476" y="123"/>
      <point x="446" y="153" type="curve"/>
      <point x="445" y="154"/>
      <point x="419" y="179"/>
      <point x="410" y="223" type="curve"/>
      <point x="581" y="223" type="line"/>
      <point x="600" y="223"/>
      <point x="616" y="239"/>
      <point x="616" y="258" type="curve"/>
      <point x="616" y="277"/>
      <point x="600" y="293"/>
      <point x="581" y="293" type="curve"/>
      <point x="44" y="293" type="line"/>
      <point x="24" y="293"/>
      <point x="9" y="277"/>
      <point x="9" y="258" type="curve"/>
      <point x="9" y="239"/>
      <point x="24" y="223"/>
      <point x="44" y="223" type="curve"/>
      <point x="338" y="223" type="line"/>
      <point x="350" y="146"/>
      <point x="397" y="103"/>
      <point x="398" y="102" type="curve"/>
      <point x="440" y="60"/>
      <point x="495" y="38"/>
      <point x="554" y="38" type="curve"/>
      <point x="675" y="37"/>
      <point x="774" y="136"/>
    </contour>
  </outline>
</glyph>
<glyph name="M" format="2">
  <advance width="780"/>
  <unicode hex="004D"/>
  <outline>
    <contour>
      <point x="479" y="213" type="curve"/>
      <point x="726" y="213" type="line"/>
      <point x="746" y="213"/>
      <point x="763" y="230"/>
      <point x="763" y="250" type="curve"/>
      <point x="763" y="271"/>
      <point x="746" y="287"/>
      <point x="726" y="287" type="curve"/>
      <point x="479" y="287" type="line"/>
      <point x="461" y="397"/>
      <point x="366" y="481"/>
      <point x="251" y="481" type="curve"/>
      <point x="124" y="482"/>
      <point x="20" y="378"/>
      <point x="20" y="251" type="curve"/>
      <point x="20" y="123"/>
      <point x="124" y="19"/>
      <point x="251" y="19" type="curve"/>
      <point x="366" y="19"/>
      <point x="461" y="104"/>
    </contour>
    <contour>
      <point x="94" y="250" type="curve"/>
      <point x="94" y="337"/>
      <point x="165" y="407"/>
      <point x="251" y="407" type="curve"/>
      <point x="338" y="407"/>
      <point x="408" y="337"/>
      <point x="408" y="250" type="curve"/>
      <point x="408" y="164"/>
      <point x="338" y="93"/>
      <point x="251" y="93" type="curve"/>
      <point x="165" y="93"/>
      <point x="94" y="164"/>
    </contour>
  </outline>
</glyph>
<glyph name="N" format="2">
  <advance width="774"/>
  <unicode hex="004E"/>
  <outline>
    <contour>
      <point x="530" y="61" type="line"/>
      <point x="605" y="62"/>
      <point x="747" y="108"/>
      <point x="747" y="273" type="curve"/>
      <point x="747" y="437"/>
      <point x="605" y="482"/>
      <point x="529" y="482" type="curve"/>
      <point x="376" y="482"/>
      <point x="318" y="383"/>
      <point x="304" y="308" type="curve"/>
      <point x="55" y="308" type="line"/>
      <point x="35" y="308"/>
      <point x="19" y="291"/>
      <point x="19" y="272" type="curve"/>
      <point x="19" y="253"/>
      <point x="35" y="236"/>
      <point x="55" y="236" type="curve"/>
      <point x="337" y="236" type="line"/>
      <point x="357" y="236"/>
      <point x="373" y="252"/>
      <point x="373" y="272" type="curve"/>
      <point x="373" y="277"/>
      <point x="376" y="410"/>
      <point x="529" y="410" type="curve"/>
      <point x="544" y="410"/>
      <point x="674" y="405"/>
      <point x="674" y="273" type="curve"/>
      <point x="674" y="139"/>
      <point x="543" y="134"/>
      <point x="529" y="134" type="curve"/>
      <point x="509" y="132"/>
      <point x="493" y="116"/>
      <point x="493" y="97" type="curve"/>
      <point x="493" y="77"/>
      <point x="509" y="61"/>
      <point x="528" y="61" type="curve"/>
    </contour>
    <contour>
      <point x="529" y="231" type="curve"/>
      <point x="552" y="231"/>
      <point x="570" y="250"/>
      <point x="570" y="272" type="curve"/>
      <point x="570" y="295"/>
      <point x="552" y="313"/>
      <point x="529" y="313" type="curve"/>
      <point x="507" y="313"/>
      <point x="488" y="295"/>
      <point x="488" y="272" type="curve"/>
      <point x="488" y="250"/>
      <point x="507" y="231"/>
    </contour>
  </outline>
</glyph>
<glyph name="O" format="2">
  <advance width="836"/>
  <unicode hex="004F"/>
  <outline>
    <contour>
      <point x="592" y="16" type="curve"/>
      <point x="577" y="16"/>
      <point x="563" y="25"/>
      <point x="556" y="40" type="curve"/>
      <point x="548" y="61" type="line"/>
      <point x="472" y="222"/>
      <point x="196" y="239"/>
      <point x="87" y="239" type="curve"/>
      <point x="49" y="239"/>
      <point x="42" y="238"/>
      <point x="40" y="238" type="curve"/>
      <point x="16" y="238"/>
      <point x="1" y="258"/>
      <point x="1" y="280" type="curve"/>
      <point x="1" y="301"/>
      <point x="17" y="318"/>
      <point x="37" y="319" type="curve"/>
      <point x="41" y="319"/>
      <point x="59" y="320"/>
      <point x="88" y="320" type="curve"/>
      <point x="181" y="320"/>
      <point x="381" y="309"/>
      <point x="514" y="216" type="curve"/>
      <point x="514" y="227"/>
      <point x="514" y="238"/>
      <point x="515" y="249" type="curve"/>
      <point x="481" y="259"/>
      <point x="453" y="275"/>
      <point x="433" y="297" type="curve"/>
      <point x="400" y="334"/>
      <point x="399" y="375"/>
      <point x="399" y="386" type="curve"/>
      <point x="400" y="432"/>
      <point x="430" y="500"/>
      <point x="513" y="500" type="curve"/>
      <point x="596" y="500"/>
      <point x="627" y="436"/>
      <point x="630" y="392" type="curve"/>
      <point x="630" y="383" type="line"/>
      <point x="630" y="371"/>
      <point x="628" y="349"/>
      <point x="619" y="320" type="curve"/>
      <point x="796" y="320" type="line"/>
      <point x="818" y="320"/>
      <point x="835" y="301"/>
      <point x="835" y="279" type="curve"/>
      <point x="835" y="257"/>
      <point x="818" y="238"/>
      <point x="796" y="238" type="curve"/>
      <point x="592" y="238" type="line"/>
      <point x="591" y="224" type="line"/>
      <point x="591" y="178"/>
      <point x="607" y="125"/>
      <point x="619" y="92" type="curve"/>
      <point x="624" y="79"/>
      <point x="630" y="69"/>
      <point x="630" y="57" type="curve"/>
      <point x="630" y="35"/>
      <point x="613" y="16"/>
    </contour>
    <contour>
      <point x="539" y="327" type="curve"/>
      <point x="552" y="359"/>
      <point x="553" y="379"/>
      <point x="553" y="383" type="curve"/>
      <point x="553" y="384" type="line"/>
      <point x="551" y="401"/>
      <point x="544" y="419"/>
      <point x="513" y="419" type="curve"/>
      <point x="490" y="419"/>
      <point x="478" y="408"/>
      <point x="477" y="384" type="curve"/>
      <point x="477" y="383"/>
      <point x="477" y="367"/>
      <point x="491" y="352" type="curve"/>
      <point x="500" y="343"/>
      <point x="514" y="333"/>
    </contour>
  </outline>
</glyph>
<glyph name="P" format="2">
  <advance width="796"/>
  <unicode hex="0050"/>
  <outline>
    <contour>
      <point x="258" y="-7" type="curve"/>
      <point x="377" y="-7"/>
      <point x="476" y="81"/>
      <point x="494" y="195" type="curve"/>
      <point x="741" y="195" type="line"/>
      <point x="762" y="195"/>
      <point x="779" y="212"/>
      <point x="779" y="233" type="curve"/>
      <point x="779" y="254"/>
      <point x="762" y="271"/>
      <point x="741" y="271" type="curve"/>
      <point x="494" y="271" type="line"/>
      <point x="476" y="385"/>
      <point x="377" y="473"/>
      <point x="258" y="473" type="curve"/>
      <point x="125" y="473"/>
      <point x="18" y="365"/>
      <point x="18" y="233" type="curve"/>
      <point x="18" y="101"/>
      <point x="125" y="-7"/>
    </contour>
    <contour>
      <point x="258" y="396" type="curve"/>
      <point x="334" y="396"/>
      <point x="399" y="343"/>
      <point x="416" y="272" type="curve"/>
      <point x="263" y="272" type="line"/>
      <point x="241" y="272"/>
      <point x="224" y="254"/>
      <point x="224" y="233" type="curve"/>
      <point x="224" y="212"/>
      <point x="242" y="195"/>
      <point x="263" y="195" type="curve"/>
      <point x="416" y="195" type="line"/>
      <point x="399" y="123"/>
      <point x="334" y="70"/>
      <point x="258" y="70" type="curve"/>
      <point x="168" y="70"/>
      <point x="95" y="143"/>
      <point x="95" y="233" type="curve"/>
      <point x="95" y="323"/>
      <point x="168" y="396"/>
    </contour>
  </outline>
</glyph>
<glyph name="Q" format="2">
  <advance width="876"/>
  <unicode hex="0051"/>
  <outline>
    <contour>
      <point x="313" y="537" type="qcurve"/>
      <point x="343" y="551"/>
      <point x="408" y="551" type="qcurve"/>
      <point x="474" y="551"/>
      <point x="487" y="542" type="qcurve"/>
      <point x="499" y="533"/>
      <point x="499" y="527" type="qcurve"/>
      <point x="499" y="520"/>
      <point x="487" y="502" type="qcurve"/>
      <point x="474" y="482" type="line"/>
      <point x="414" y="479" type="line"/>
      <point x="341" y="475"/>
      <point x="284" y="439"/>
      <point x="254" y="378" type="qcurve"/>
      <point x="226" y="322"/>
      <point x="216" y="309" type="qcurve"/>
      <point x="189" y="271"/>
      <point x="110" y="264" type="qcurve"/>
      <point x="102" y="263"/>
      <point x="90" y="263" type="qcurve"/>
      <point x="68" y="263"/>
      <point x="50" y="278"/>
      <point x="50" y="316"/>
      <point x="74" y="331"/>
      <point x="106" y="334" type="qcurve"/>
      <point x="142" y="337"/>
      <point x="157" y="346" type="qcurve"/>
      <point x="166" y="352"/>
      <point x="192" y="394"/>
      <point x="192" y="404" type="qcurve"/>
      <point x="192" y="413"/>
      <point x="245" y="491"/>
      <point x="261" y="505" type="qcurve"/>
      <point x="282" y="522"/>
    </contour>
    <contour>
      <point x="474" y="247" type="qcurve"/>
      <point x="458" y="249"/>
      <point x="451" y="249" type="qcurve"/>
      <point x="429" y="249"/>
      <point x="429" y="242" type="qcurve"/>
      <point x="429" y="234"/>
      <point x="469" y="199"/>
      <point x="477" y="199" type="qcurve"/>
      <point x="478" y="199" type="line"/>
      <point x="481" y="200"/>
      <point x="494" y="204"/>
      <point x="497" y="205" type="qcurve"/>
      <point x="505" y="207"/>
      <point x="499" y="225" type="qcurve"/>
      <point x="492" y="244"/>
    </contour>
    <contour>
      <point x="631" y="578" type="line"/>
      <point x="645" y="591"/>
      <point x="667" y="591" type="qcurve"/>
      <point x="684" y="591"/>
      <point x="688" y="582" type="qcurve"/>
      <point x="689" y="581"/>
      <point x="689" y="573" type="qcurve"/>
      <point x="689" y="553"/>
      <point x="684" y="515" type="qcurve"/>
      <point x="680" y="487"/>
      <point x="680" y="441" type="qcurve"/>
      <point x="680" y="364"/>
      <point x="689" y="350" type="qcurve"/>
      <point x="693" y="345"/>
      <point x="813" y="341"/>
      <point x="819" y="335" type="qcurve"/>
      <point x="826" y="328"/>
      <point x="826" y="309" type="qcurve"/>
      <point x="826" y="285"/>
      <point x="815" y="269" type="qcurve"/>
      <point x="810" y="262"/>
      <point x="804" y="257"/>
      <point x="791" y="254"/>
      <point x="779" y="254" type="qcurve"/>
      <point x="776" y="254"/>
      <point x="757" y="255"/>
      <point x="750" y="255" type="qcurve"/>
      <point x="697" y="257" type="line"/>
      <point x="700" y="197" type="line"/>
      <point x="701" y="184"/>
      <point x="701" y="164" type="qcurve"/>
      <point x="701" y="136"/>
      <point x="690" y="111" type="qcurve"/>
      <point x="678" y="84"/>
      <point x="663" y="84" type="qcurve"/>
      <point x="644" y="84"/>
      <point x="631" y="115"/>
      <point x="630" y="159" type="qcurve"/>
      <point x="630" y="202"/>
      <point x="625" y="235" type="qcurve"/>
      <point x="622" y="252"/>
      <point x="614" y="258"/>
      <point x="593" y="260" type="qcurve"/>
      <point x="565" y="262" type="line"/>
      <point x="566" y="229" type="line"/>
      <point x="566" y="220" type="line"/>
      <point x="566" y="196"/>
      <point x="549" y="171" type="qcurve"/>
      <point x="536" y="154"/>
      <point x="520" y="145"/>
      <point x="491" y="140" type="qcurve"/>
      <point x="459" y="136"/>
      <point x="449" y="136" type="qcurve"/>
      <point x="436" y="136"/>
      <point x="431" y="138" type="qcurve"/>
      <point x="412" y="143"/>
      <point x="369" y="194"/>
      <point x="357" y="225" type="qcurve"/>
      <point x="345" y="259" type="line"/>
      <point x="358" y="285" type="line"/>
      <point x="375" y="317"/>
      <point x="435" y="338"/>
      <point x="519" y="342" type="qcurve"/>
      <point x="611" y="346" type="line"/>
      <point x="612" y="382"/>
      <point x="614" y="527"/>
      <point x="615" y="564" type="qcurve"/>
    </contour>
  </outline>
</glyph>
<glyph name="R" format="2">
  <advance width="775"/>
  <unicode hex="0052"/>
  <outline>
    <contour>
      <point x="142" y="557" type="qcurve"/>
      <point x="151" y="561"/>
      <point x="189" y="561" type="qcurve"/>
      <point x="254" y="561"/>
      <point x="273" y="553" type="qcurve"/>
      <point x="291" y="545"/>
      <point x="303" y="542" type="qcurve"/>
      <point x="316" y="539"/>
      <point x="383" y="485"/>
      <point x="397" y="467" type="qcurve"/>
      <point x="408" y="452"/>
      <point x="435" y="390"/>
      <point x="440" y="367" type="qcurve"/>
      <point x="442" y="355"/>
      <point x="456" y="350"/>
      <point x="489" y="349" type="qcurve"/>
      <point x="505" y="348"/>
      <point x="526" y="348" type="qcurve"/>
      <point x="542" y="348"/>
      <point x="596" y="352"/>
      <point x="630" y="353" type="qcurve"/>
      <point x="645" y="354"/>
      <point x="668" y="354" type="qcurve"/>
      <point x="701" y="354"/>
      <point x="721" y="341"/>
      <point x="724" y="321" type="qcurve"/>
      <point x="724" y="319"/>
      <point x="725" y="313"/>
      <point x="725" y="312" type="qcurve"/>
      <point x="725" y="297"/>
      <point x="707" y="279" type="qcurve"/>
      <point x="693" y="264"/>
      <point x="672" y="256"/>
      <point x="638" y="253" type="qcurve"/>
      <point x="624" y="252"/>
      <point x="582" y="252" type="qcurve"/>
      <point x="537" y="252"/>
      <point x="517" y="253" type="qcurve"/>
      <point x="445" y="257" type="line"/>
      <point x="437" y="217" type="line"/>
      <point x="432" y="187"/>
      <point x="396" y="104"/>
      <point x="378" y="79" type="qcurve"/>
      <point x="367" y="64"/>
      <point x="326" y="42" type="qcurve"/>
      <point x="290" y="24"/>
      <point x="256" y="24" type="qcurve"/>
      <point x="236" y="24" type="line"/>
      <point x="146" y="26"/>
      <point x="108" y="49" type="qcurve"/>
      <point x="94" y="58"/>
      <point x="58" y="109"/>
      <point x="58" y="120" type="qcurve"/>
      <point x="60" y="169"/>
      <point x="92" y="169" type="qcurve"/>
      <point x="113" y="169"/>
      <point x="130" y="146" type="qcurve"/>
      <point x="142" y="132"/>
      <point x="206" y="114"/>
      <point x="242" y="114" type="qcurve"/>
      <point x="285" y="114"/>
      <point x="310" y="127" type="qcurve"/>
      <point x="326" y="135"/>
      <point x="359" y="201"/>
      <point x="363" y="234" type="qcurve"/>
      <point x="367" y="262" type="line"/>
      <point x="318" y="262" type="line"/>
      <point x="265" y="260"/>
      <point x="200" y="253" type="qcurve"/>
      <point x="162" y="248"/>
      <point x="142" y="248" type="qcurve"/>
      <point x="126" y="248"/>
      <point x="119" y="253" type="qcurve"/>
      <point x="105" y="262"/>
      <point x="105" y="264" type="qcurve"/>
      <point x="105" y="265"/>
      <point x="111" y="295" type="qcurve"/>
      <point x="118" y="326"/>
      <point x="171" y="341"/>
      <point x="314" y="354" type="qcurve"/>
      <point x="354" y="358"/>
      <point x="354" y="363" type="qcurve"/>
      <point x="354" y="379"/>
      <point x="294" y="445"/>
      <point x="266" y="459" type="qcurve"/>
      <point x="252" y="466"/>
      <point x="187" y="479"/>
      <point x="166" y="479" type="qcurve"/>
      <point x="157" y="479"/>
      <point x="154" y="478" type="qcurve"/>
      <point x="145" y="476"/>
      <point x="110" y="451" type="qcurve"/>
      <point x="80" y="428"/>
      <point x="75" y="428" type="qcurve"/>
      <point x="71" y="428"/>
      <point x="65" y="434" type="qcurve"/>
      <point x="58" y="441"/>
      <point x="58" y="458" type="qcurve"/>
      <point x="58" y="476"/>
      <point x="66" y="492" type="qcurve"/>
      <point x="73" y="505"/>
      <point x="126" y="551"/>
    </contour>
  </outline>
</glyph>
<glyph name="S" format="2">
  <advance width="875"/>
  <unicode hex="0053"/>
  <outline>
    <contour>
      <point x="447" y="252" type="curve"/>
      <point x="447" y="365"/>
      <point x="355" y="457"/>
      <point x="241" y="457" type="curve"/>
      <point x="128" y="457"/>
      <point x="36" y="365"/>
      <point x="36" y="252" type="curve"/>
      <point x="36" y="139"/>
      <point x="128" y="46"/>
      <point x="241" y="46" type="curve"/>
      <point x="355" y="46"/>
      <point x="447" y="138"/>
    </contour>
    <contour>
      <point x="367" y="252" type="curve"/>
      <point x="367" y="183"/>
      <point x="310" y="127"/>
      <point x="241" y="127" type="curve"/>
      <point x="172" y="127"/>
      <point x="116" y="183"/>
      <point x="116" y="252" type="curve"/>
      <point x="116" y="321"/>
      <point x="172" y="377"/>
      <point x="241" y="377" type="curve"/>
      <point x="310" y="377"/>
      <point x="367" y="321"/>
    </contour>
    <contour>
      <point x="846" y="252" type="curve"/>
      <point x="846" y="274"/>
      <point x="828" y="292"/>
      <point x="806" y="292" type="curve"/>
      <point x="590" y="292" type="line"/>
      <point x="590" y="462" type="line"/>
      <point x="590" y="484"/>
      <point x="572" y="502"/>
      <point x="550" y="502" type="curve"/>
      <point x="528" y="502"/>
      <point x="510" y="484"/>
      <point x="510" y="462" type="curve"/>
      <point x="510" y="42" type="line"/>
      <point x="510" y="19"/>
      <point x="528" y="2"/>
      <point x="550" y="2" type="curve"/>
      <point x="572" y="2"/>
      <point x="590" y="20"/>
      <point x="590" y="42" type="curve"/>
      <point x="590" y="212" type="line"/>
      <point x="806" y="212" type="line"/>
      <point x="828" y="212"/>
      <point x="846" y="230"/>
    </contour>
  </outline>
</glyph>
<glyph name="T" format="2">
  <advance width="812"/>
  <unicode hex="0054"/>
  <outline>
    <contour>
      <point x="209" y="17" type="curve"/>
      <point x="330" y="17"/>
      <point x="431" y="106"/>
      <point x="450" y="223" type="curve"/>
      <point x="752" y="223" type="line"/>
      <point x="773" y="223"/>
      <point x="789" y="241"/>
      <point x="789" y="262" type="curve"/>
      <point x="789" y="283"/>
      <point x="773" y="301"/>
      <point x="752" y="301" type="curve"/>
      <point x="450" y="301" type="line"/>
      <point x="431" y="416"/>
      <point x="330" y="506"/>
      <point x="209" y="506" type="curve"/>
      <point x="143" y="506"/>
      <point x="83" y="481"/>
      <point x="36" y="434" type="curve"/>
      <point x="29" y="427"/>
      <point x="25" y="417"/>
      <point x="25" y="407" type="curve"/>
      <point x="25" y="397"/>
      <point x="29" y="388"/>
      <point x="36" y="380" type="curve"/>
      <point x="36" y="371"/>
      <point x="63" y="367"/>
      <point x="63" y="367" type="curve"/>
      <point x="73" y="367"/>
      <point x="83" y="371"/>
      <point x="90" y="379" type="curve"/>
      <point x="122" y="410"/>
      <point x="164" y="428"/>
      <point x="209" y="428" type="curve"/>
      <point x="300" y="428"/>
      <point x="375" y="353"/>
      <point x="375" y="262" type="curve"/>
      <point x="375" y="170"/>
      <point x="300" y="95"/>
      <point x="209" y="95" type="curve"/>
      <point x="164" y="95"/>
      <point x="122" y="112"/>
      <point x="90" y="143" type="curve"/>
      <point x="83" y="151"/>
      <point x="73" y="154"/>
      <point x="63" y="154" type="curve"/>
      <point x="42" y="154"/>
      <point x="25" y="137"/>
      <point x="25" y="116" type="curve"/>
      <point x="25" y="106"/>
      <point x="29" y="96"/>
      <point x="36" y="88" type="curve"/>
      <point x="83" y="43"/>
      <point x="143" y="17"/>
    </contour>
    <contour>
      <point x="209" y="217" type="curve"/>
      <point x="233" y="217"/>
      <point x="253" y="237"/>
      <point x="253" y="261" type="curve"/>
      <point x="253" y="286"/>
      <point x="233" y="305"/>
      <point x="209" y="305" type="curve"/>
      <point x="185" y="305"/>
      <point x="165" y="286"/>
      <point x="165" y="261" type="curve"/>
      <point x="165" y="237"/>
      <point x="185" y="217"/>
    </contour>
  </outline>
</glyph>
<glyph name="U" format="2">
  <advance width="749"/>
  <unicode hex="0055"/>
  <outline>
    <contour>
      <point x="488" y="45" type="curve"/>
      <point x="507" y="45"/>
      <point x="522" y="61"/>
      <point x="522" y="80" type="curve"/>
      <point x="522" y="86"/>
      <point x="520" y="93"/>
      <point x="518" y="98" type="curve"/>
      <point x="517" y="99"/>
      <point x="490" y="158"/>
      <point x="474" y="227" type="curve"/>
      <point x="707" y="227" type="line"/>
      <point x="727" y="227"/>
      <point x="742" y="243"/>
      <point x="742" y="262" type="curve"/>
      <point x="742" y="281"/>
      <point x="727" y="297"/>
      <point x="707" y="297" type="curve"/>
      <point x="462" y="297" type="line"/>
      <point x="461" y="307"/>
      <point x="461" y="317"/>
      <point x="461" y="327" type="curve"/>
      <point x="461" y="361"/>
      <point x="466" y="393"/>
      <point x="480" y="432" type="curve"/>
      <point x="482" y="436"/>
      <point x="482" y="440"/>
      <point x="482" y="444" type="curve"/>
      <point x="482" y="463"/>
      <point x="467" y="479"/>
      <point x="447" y="479" type="curve"/>
      <point x="441" y="479"/>
      <point x="434" y="477"/>
      <point x="428" y="472" type="curve"/>
      <point x="306" y="390"/>
      <point x="291" y="366"/>
      <point x="289" y="357" type="curve"/>
      <point x="287" y="352"/>
      <point x="286" y="348"/>
      <point x="286" y="343" type="curve"/>
      <point x="286" y="325"/>
      <point x="303" y="310"/>
      <point x="319" y="310" type="curve"/>
      <point x="331" y="310"/>
      <point x="342" y="319"/>
      <point x="352" y="328" type="curve"/>
      <point x="394" y="363" type="line"/>
      <point x="392" y="347"/>
      <point x="391" y="330"/>
      <point x="391" y="315" type="curve"/>
      <point x="391" y="261"/>
      <point x="401" y="211"/>
      <point x="413" y="171" type="curve"/>
      <point x="283" y="262"/>
      <point x="40" y="297"/>
      <point x="30" y="297" type="curve"/>
      <point x="11" y="297"/>
      <point x="-5" y="281"/>
      <point x="-5" y="262" type="curve"/>
      <point x="-5" y="243"/>
      <point x="10" y="227"/>
      <point x="30" y="227" type="curve"/>
      <point x="33" y="227"/>
      <point x="295" y="194"/>
      <point x="465" y="54" type="curve"/>
      <point x="471" y="48"/>
      <point x="480" y="45"/>
    </contour>
  </outline>
</glyph>
<glyph name="V" format="2">
  <advance width="907"/>
  <unicode hex="0056"/>
  <outline>
    <contour>
      <point x="486" y="475" type="curve"/>
      <point x="461" y="475"/>
      <point x="437" y="469"/>
      <point x="421" y="462" type="curve"/>
      <point x="419" y="461"/>
      <point x="417" y="460"/>
      <point x="415" y="458" type="curve"/>
      <point x="203" y="320" type="line"/>
      <point x="35" y="320" type="line"/>
      <point x="14" y="320"/>
      <point x="-4" y="303"/>
      <point x="-4" y="281" type="curve"/>
      <point x="-4" y="260"/>
      <point x="14" y="243"/>
      <point x="35" y="243" type="curve"/>
      <point x="215" y="243" type="line"/>
      <point x="223" y="243"/>
      <point x="229" y="245"/>
      <point x="236" y="249" type="curve"/>
      <point x="454" y="391" type="line"/>
      <point x="460" y="394"/>
      <point x="472" y="398"/>
      <point x="486" y="398" type="curve"/>
      <point x="504" y="398"/>
      <point x="524" y="391"/>
      <point x="537" y="366" type="curve"/>
      <point x="544" y="353"/>
      <point x="557" y="345"/>
      <point x="571" y="345" type="curve"/>
      <point x="592" y="345"/>
      <point x="611" y="362"/>
      <point x="611" y="384" type="curve"/>
      <point x="611" y="389"/>
      <point x="609" y="395"/>
      <point x="607" y="401" type="curve"/>
      <point x="578" y="458"/>
      <point x="530" y="475"/>
    </contour>
    <contour>
      <point x="864" y="298" type="curve"/>
      <point x="684" y="298" type="line"/>
      <point x="678" y="298"/>
      <point x="670" y="296"/>
      <point x="663" y="292" type="curve"/>
      <point x="446" y="149" type="line"/>
      <point x="440" y="147"/>
      <point x="428" y="143"/>
      <point x="414" y="143" type="curve"/>
      <point x="396" y="143"/>
      <point x="375" y="150"/>
      <point x="363" y="175" type="curve"/>
      <point x="356" y="188"/>
      <point x="342" y="196"/>
      <point x="328" y="196" type="curve"/>
      <point x="307" y="196"/>
      <point x="289" y="180"/>
      <point x="289" y="157" type="curve"/>
      <point x="289" y="151"/>
      <point x="291" y="145"/>
      <point x="294" y="140" type="curve"/>
      <point x="322" y="82"/>
      <point x="370" y="65"/>
      <point x="413" y="65" type="curve"/>
      <point x="422" y="65"/>
      <point x="474" y="71"/>
      <point x="485" y="82" type="curve"/>
      <point x="696" y="220" type="line"/>
      <point x="864" y="220" type="line"/>
      <point x="886" y="220"/>
      <point x="903" y="238"/>
      <point x="903" y="259" type="curve"/>
      <point x="903" y="281"/>
      <point x="886" y="298"/>
    </contour>
    <contour>
      <point x="452" y="302" type="curve"/>
      <point x="435" y="302"/>
      <point x="421" y="288"/>
      <point x="421" y="271" type="curve"/>
      <point x="421" y="254"/>
      <point x="435" y="240"/>
      <point x="452" y="240" type="curve"/>
      <point x="469" y="240"/>
      <point x="483" y="254"/>
      <point x="483" y="271" type="curve"/>
      <point x="483" y="288"/>
      <point x="469" y="302"/>
    </contour>
  </outline>
</glyph>
<glyph name="W" format="2">
  <advance width="776"/>
  <unicode hex="0057"/>
  <outline>
    <contour>
      <point x="338" y="527" type="qcurve"/>
      <point x="369" y="551"/>
      <point x="378" y="551" type="qcurve"/>
      <point x="384" y="551"/>
      <point x="387" y="546" type="qcurve"/>
      <point x="391" y="540"/>
      <point x="411" y="540"/>
      <point x="418" y="527" type="qcurve"/>
      <point x="423" y="519"/>
      <point x="423" y="508" type="qcurve"/>
      <point x="423" y="490"/>
      <point x="407" y="446" type="qcurve"/>
      <point x="395" y="413"/>
      <point x="395" y="366" type="qcurve"/>
      <point x="395" y="267"/>
      <point x="437" y="186" type="qcurve"/>
      <point x="446" y="169"/>
      <point x="446" y="157" type="qcurve"/>
      <point x="446" y="149"/>
      <point x="443" y="137" type="qcurve"/>
      <point x="433" y="97"/>
      <point x="413" y="97" type="qcurve"/>
      <point x="394" y="97"/>
      <point x="357" y="134" type="qcurve"/>
      <point x="299" y="194"/>
      <point x="226" y="224" type="qcurve"/>
      <point x="164" y="249"/>
      <point x="109" y="249" type="qcurve"/>
      <point x="107" y="249"/>
      <point x="98" y="248"/>
      <point x="96" y="248"/>
      <point x="88" y="247"/>
      <point x="87" y="247" type="qcurve"/>
      <point x="50" y="247"/>
      <point x="50" y="282" type="qcurve"/>
      <point x="50" y="288"/>
      <point x="51" y="292" type="qcurve"/>
      <point x="58" y="334"/>
      <point x="101" y="334" type="qcurve"/>
      <point x="105" y="334" type="line"/>
      <point x="143" y="332"/>
      <point x="261" y="304"/>
      <point x="291" y="288" type="qcurve"/>
      <point x="330" y="268" type="line"/>
      <point x="330" y="434" type="line"/>
      <point x="295" y="408" type="line"/>
      <point x="253" y="379"/>
      <point x="251" y="377" type="qcurve"/>
      <point x="246" y="374"/>
      <point x="242" y="374" type="qcurve"/>
      <point x="232" y="374"/>
      <point x="218" y="399"/>
      <point x="218" y="415" type="qcurve"/>
      <point x="218" y="428"/>
      <point x="230" y="448"/>
      <point x="275" y="480" type="qcurve"/>
      <point x="326" y="516"/>
    </contour>
    <contour>
      <point x="499" y="549" type="qcurve"/>
      <point x="514" y="556"/>
      <point x="525" y="556" type="qcurve"/>
      <point x="537" y="556"/>
      <point x="543" y="539" type="qcurve"/>
      <point x="546" y="532"/>
      <point x="546" y="525" type="qcurve"/>
      <point x="546" y="514"/>
      <point x="537" y="491" type="qcurve"/>
      <point x="527" y="466"/>
      <point x="527" y="421" type="qcurve"/>
      <point x="527" y="401" type="line"/>
      <point x="529" y="341" type="line"/>
      <point x="599" y="340" type="line"/>
      <point x="619" y="340" type="line"/>
      <point x="671" y="340"/>
      <point x="689" y="344" type="qcurve"/>
      <point x="698" y="347"/>
      <point x="703" y="347" type="qcurve"/>
      <point x="711" y="347"/>
      <point x="718" y="337" type="qcurve"/>
      <point x="726" y="324"/>
      <point x="726" y="316" type="qcurve"/>
      <point x="726" y="303"/>
      <point x="710" y="278" type="qcurve"/>
      <point x="692" y="250" type="line"/>
      <point x="620" y="254" type="line"/>
      <point x="548" y="257" type="line"/>
      <point x="553" y="243" type="line"/>
      <point x="560" y="222"/>
      <point x="560" y="204" type="qcurve"/>
      <point x="560" y="184"/>
      <point x="551" y="167" type="qcurve"/>
      <point x="540" y="147"/>
      <point x="525" y="147" type="qcurve"/>
      <point x="512" y="147"/>
      <point x="489" y="179"/>
      <point x="484" y="207" type="qcurve"/>
      <point x="483" y="214"/>
      <point x="478" y="238"/>
      <point x="471" y="271"/>
      <point x="469" y="279" type="qcurve"/>
      <point x="458" y="331"/>
      <point x="458" y="405" type="qcurve"/>
      <point x="458" y="478"/>
      <point x="469" y="509" type="qcurve"/>
      <point x="479" y="540"/>
    </contour>
  </outline>
</glyph>
<glyph name="X" format="2">
  <advance width="816"/>
  <unicode hex="0058"/>
  <outline>
    <contour>
      <point x="601" y="70" type="line"/>
      <point x="613" y="70"/>
      <point x="624" y="76"/>
      <point x="631" y="87" type="curve"/>
      <point x="658" y="125"/>
      <point x="667" y="164"/>
      <point x="667" y="199" type="curve"/>
      <point x="667" y="215"/>
      <point x="665" y="230"/>
      <point x="662" y="244" type="curve"/>
      <point x="765" y="244" type="line"/>
      <point x="786" y="244"/>
      <point x="804" y="263"/>
      <point x="804" y="286" type="curve"/>
      <point x="804" y="309"/>
      <point x="786" y="328"/>
      <point x="765" y="328" type="curve"/>
      <point x="461" y="328" type="line"/>
      <point x="440" y="328"/>
      <point x="422" y="309"/>
      <point x="422" y="286" type="curve"/>
      <point x="422" y="263"/>
      <point x="439" y="244"/>
      <point x="461" y="244" type="curve"/>
      <point x="581" y="244" type="line"/>
      <point x="585" y="234"/>
      <point x="591" y="218"/>
      <point x="591" y="200" type="curve"/>
      <point x="591" y="186"/>
      <point x="588" y="171"/>
      <point x="579" y="154" type="curve"/>
      <point x="470" y="154" type="line"/>
      <point x="184" y="323" type="line"/>
      <point x="180" y="327"/>
      <point x="172" y="328"/>
      <point x="166" y="328" type="curve"/>
      <point x="52" y="328" type="line"/>
      <point x="31" y="328"/>
      <point x="14" y="310"/>
      <point x="14" y="286" type="curve"/>
      <point x="14" y="263"/>
      <point x="31" y="244"/>
      <point x="52" y="244" type="curve"/>
      <point x="157" y="244" type="line"/>
      <point x="443" y="75" type="line"/>
      <point x="449" y="71"/>
      <point x="455" y="70"/>
      <point x="461" y="70" type="curve"/>
    </contour>
  </outline>
</glyph>
<glyph name="Y" format="2">
  <advance width="800"/>
  <unicode hex="0059"/>
  <outline>
    <contour>
      <point x="552" y="39" type="curve"/>
      <point x="630" y="40"/>
      <point x="778" y="88"/>
      <point x="778" y="259" type="curve"/>
      <point x="778" y="430"/>
      <point x="630" y="478"/>
      <point x="552" y="478" type="curve"/>
      <point x="392" y="478"/>
      <point x="332" y="374"/>
      <point x="317" y="297" type="curve"/>
      <point x="58" y="297" type="line"/>
      <point x="38" y="297"/>
      <point x="21" y="280"/>
      <point x="21" y="259" type="curve"/>
      <point x="21" y="238"/>
      <point x="38" y="221"/>
      <point x="58" y="221" type="curve"/>
      <point x="351" y="221" type="line"/>
      <point x="372" y="221"/>
      <point x="389" y="238"/>
      <point x="389" y="259" type="curve"/>
      <point x="389" y="265"/>
      <point x="391" y="402"/>
      <point x="551" y="402" type="curve"/>
      <point x="567" y="402"/>
      <point x="702" y="397"/>
      <point x="702" y="259" type="curve"/>
      <point x="702" y="121"/>
      <point x="566" y="115"/>
      <point x="551" y="114" type="curve"/>
      <point x="530" y="114"/>
      <point x="514" y="97"/>
      <point x="514" y="76" type="curve"/>
      <point x="514" y="55"/>
      <point x="531" y="38"/>
    </contour>
    <contour>
      <point x="352" y="39" type="curve"/>
      <point x="361" y="39"/>
      <point x="370" y="42"/>
      <point x="376" y="48" type="curve"/>
      <point x="578" y="230" type="line"/>
      <point x="585" y="237"/>
      <point x="590" y="248"/>
      <point x="590" y="258" type="curve"/>
      <point x="590" y="279"/>
      <point x="572" y="296"/>
      <point x="552" y="296" type="curve"/>
      <point x="543" y="296"/>
      <point x="534" y="292"/>
      <point x="527" y="285" type="curve"/>
      <point x="325" y="104" type="line"/>
      <point x="318" y="97"/>
      <point x="313" y="87"/>
      <point x="313" y="77" type="curve"/>
      <point x="313" y="57"/>
      <point x="331" y="39"/>
    </contour>
  </outline>
</glyph>
<glyph name="Z" format="2">
  <advance width="838"/>
  <unicode hex="005A"/>
  <outline>
    <contour>
      <point x="441" y="46" type="line"/>
      <point x="451" y="46"/>
      <point x="460" y="50"/>
      <point x="467" y="56" type="curve"/>
      <point x="635" y="218" type="line"/>
      <point x="796" y="218" type="line"/>
      <point x="817" y="218"/>
      <point x="834" y="235"/>
      <point x="834" y="256" type="curve"/>
      <point x="834" y="277"/>
      <point x="817" y="294"/>
      <point x="796" y="294" type="curve"/>
      <point x="633" y="294" type="line"/>
      <point x="465" y="436" type="line"/>
      <point x="462" y="439"/>
      <point x="423" y="470"/>
      <point x="354" y="470" type="curve"/>
      <point x="323" y="470"/>
      <point x="287" y="462"/>
      <point x="250" y="439" type="curve"/>
      <point x="239" y="432"/>
      <point x="233" y="420"/>
      <point x="233" y="407" type="curve"/>
      <point x="233" y="294" type="line"/>
      <point x="40" y="294" type="line"/>
      <point x="19" y="294"/>
      <point x="2" y="277"/>
      <point x="2" y="256" type="curve"/>
      <point x="2" y="235"/>
      <point x="19" y="218"/>
      <point x="40" y="218" type="curve"/>
      <point x="414" y="218" type="line"/>
      <point x="435" y="218"/>
      <point x="452" y="235"/>
      <point x="452" y="256" type="curve"/>
      <point x="452" y="277"/>
      <point x="435" y="294"/>
      <point x="414" y="294" type="curve"/>
      <point x="309" y="294" type="line"/>
      <point x="309" y="385" type="line"/>
      <point x="325" y="392"/>
      <point x="340" y="394"/>
      <point x="354" y="394" type="curve"/>
      <point x="387" y="394"/>
      <point x="412" y="381"/>
      <point x="418" y="377" type="curve"/>
      <point x="563" y="254" type="line"/>
      <point x="425" y="122" type="line"/>
      <point x="353" y="122" type="line"/>
      <point x="332" y="122"/>
      <point x="315" y="105"/>
      <point x="315" y="84" type="curve"/>
      <point x="315" y="63"/>
      <point x="332" y="46"/>
      <point x="353" y="46" type="curve"/>
    </contour>
  </outline>
</glyph>
<glyph name="a" format="2">
  <advance width="860"/>
  <unicode hex="0061"/>
  <outline>
    <contour>
      <point x="555" y="6" type="qcurve"/>
      <point x="542" y="6"/>
      <point x="530" y="15" type="qcurve"/>
      <point x="284" y="215" type="line"/>
      <point x="40" y="215" type="line"/>
      <point x="24" y="215"/>
      <point x="1" y="237"/>
      <point x="1" y="253" type="qcurve"/>
      <point x="1" y="270"/>
      <point x="24" y="292"/>
      <point x="40" y="292" type="qcurve"/>
      <point x="298" y="292" type="line"/>
      <point x="312" y="292"/>
      <point x="322" y="284" type="qcurve"/>
      <point x="447" y="182" type="line"/>
      <point x="439" y="236"/>
      <point x="439" y="257" type="qcurve"/>
      <point x="439" y="313"/>
      <point x="477" y="430"/>
      <point x="525" y="488" type="qcurve"/>
      <point x="525" y="487" type="line"/>
      <point x="538" y="501"/>
      <point x="555" y="501" type="qcurve"/>
      <point x="587" y="501"/>
      <point x="594" y="463" type="qcurve"/>
      <point x="594" y="449"/>
      <point x="585" y="437" type="qcurve"/>
      <point x="524" y="362"/>
      <point x="518" y="292" type="qcurve"/>
      <point x="817" y="292" type="line"/>
      <point x="833" y="292"/>
      <point x="856" y="270"/>
      <point x="856" y="253" type="qcurve"/>
      <point x="856" y="237"/>
      <point x="833" y="215"/>
      <point x="817" y="215" type="qcurve"/>
      <point x="519" y="215" type="line"/>
      <point x="525" y="184"/>
      <point x="545" y="132"/>
      <point x="567" y="94"/>
      <point x="583" y="71"/>
      <point x="585" y="70" type="qcurve"/>
      <point x="593" y="59"/>
      <point x="593" y="46" type="qcurve"/>
      <point x="593" y="29"/>
      <point x="572" y="6"/>
    </contour>
  </outline>
</glyph>
<glyph name="b" format="2">
  <advance width="801"/>
  <unicode hex="0062"/>
  <outline>
    <contour>
      <point x="359" y="121" type="qcurve"/>
      <point x="202" y="121" type="line"/>
      <point x="184" y="121"/>
      <point x="158" y="147"/>
      <point x="158" y="165" type="qcurve"/>
      <point x="158" y="184"/>
      <point x="184" y="209"/>
      <point x="202" y="209" type="qcurve"/>
      <point x="344" y="209" type="line"/>
      <point x="557" y="377" type="line"/>
      <point x="570" y="386"/>
      <point x="585" y="386" type="qcurve"/>
      <point x="757" y="386" type="line"/>
      <point x="775" y="386"/>
      <point x="801" y="360"/>
      <point x="801" y="342" type="qcurve"/>
      <point x="801" y="324"/>
      <point x="775" y="298"/>
      <point x="757" y="298" type="qcurve"/>
      <point x="600" y="298" type="line"/>
      <point x="387" y="131" type="line"/>
      <point x="374" y="121"/>
    </contour>
    <contour>
      <point x="345" y="306" type="qcurve"/>
      <point x="36" y="306" type="line"/>
      <point x="19" y="306"/>
      <point x="-3" y="329"/>
      <point x="-3" y="345" type="qcurve"/>
      <point x="-3" y="362"/>
      <point x="19" y="385"/>
      <point x="36" y="385" type="qcurve"/>
      <point x="345" y="385" type="line"/>
      <point x="361" y="385"/>
      <point x="384" y="362"/>
      <point x="384" y="345" type="qcurve"/>
      <point x="384" y="329"/>
      <point x="361" y="306"/>
    </contour>
  </outline>
</glyph>
<glyph name="c" format="2">
  <advance width="834"/>
  <unicode hex="0063"/>
  <outline>
    <contour>
      <point x="450" y="45" type="line"/>
      <point x="463" y="45"/>
      <point x="474" y="53" type="qcurve"/>
      <point x="659" y="198" type="line"/>
      <point x="796" y="198" type="line"/>
      <point x="834" y="205"/>
      <point x="834" y="236" type="qcurve"/>
      <point x="827" y="275"/>
      <point x="796" y="275" type="qcurve"/>
      <point x="646" y="275" type="line"/>
      <point x="633" y="275"/>
      <point x="622" y="267" type="qcurve"/>
      <point x="437" y="121" type="line"/>
      <point x="313" y="121" type="line"/>
      <point x="275" y="115"/>
      <point x="275" y="83" type="qcurve"/>
      <point x="282" y="45"/>
      <point x="313" y="45" type="qcurve"/>
    </contour>
    <contour>
      <point x="370" y="198" type="line"/>
      <point x="379" y="198"/>
      <point x="444" y="230"/>
      <point x="502" y="291"/>
      <point x="502" y="333" type="qcurve"/>
      <point x="502" y="335" type="line"/>
      <point x="495" y="388"/>
      <point x="409" y="444"/>
      <point x="383" y="452" type="qcurve"/>
      <point x="377" y="455"/>
      <point x="295" y="455" type="qcurve"/>
      <point x="256" y="449"/>
      <point x="256" y="419" type="qcurve"/>
      <point x="256" y="278" type="line"/>
      <point x="37" y="278" type="line"/>
      <point x="-4" y="270"/>
      <point x="-4" y="239" type="qcurve"/>
      <point x="3" y="198"/>
      <point x="37" y="198" type="qcurve"/>
    </contour>
    <contour>
      <point x="360" y="278" type="qcurve"/>
      <point x="336" y="278" type="line"/>
      <point x="335" y="375" type="line"/>
      <point x="362" y="375" type="line"/>
      <point x="397" y="360"/>
      <point x="423" y="337"/>
      <point x="422" y="333" type="qcurve"/>
      <point x="422" y="314"/>
    </contour>
  </outline>
</glyph>
<glyph name="d" format="2">
  <advance width="912"/>
  <unicode hex="0064"/>
  <outline>
    <contour>
      <point x="866" y="318" type="curve"/>
      <point x="515" y="318" type="line"/>
      <point x="490" y="318"/>
      <point x="470" y="338"/>
      <point x="470" y="362" type="curve"/>
      <point x="470" y="387"/>
      <point x="490" y="407"/>
      <point x="515" y="407" type="curve"/>
      <point x="866" y="407" type="line"/>
      <point x="891" y="407"/>
      <point x="910" y="387"/>
      <point x="910" y="362" type="curve"/>
      <point x="910" y="338"/>
      <point x="891" y="318"/>
    </contour>
    <contour>
      <point x="678" y="108" type="curve"/>
      <point x="499" y="108" type="line"/>
      <point x="488" y="108"/>
      <point x="477" y="112"/>
      <point x="468" y="119" type="curve"/>
      <point x="226" y="309" type="line"/>
      <point x="48" y="309" type="line"/>
      <point x="20" y="309"/>
      <point x="-2" y="331"/>
      <point x="-2" y="359" type="curve"/>
      <point x="-2" y="387"/>
      <point x="20" y="409"/>
      <point x="48" y="409" type="curve"/>
      <point x="243" y="409" type="line"/>
      <point x="254" y="409"/>
      <point x="265" y="405"/>
      <point x="274" y="398" type="curve"/>
      <point x="516" y="208" type="line"/>
      <point x="677" y="208" type="line"/>
      <point x="705" y="208"/>
      <point x="727" y="186"/>
      <point x="727" y="158" type="curve"/>
      <point x="728" y="158" type="line"/>
      <point x="728" y="131"/>
      <point x="705" y="108"/>
    </contour>
  </outline>
</glyph>
<glyph name="e" format="2">
  <advance width="994"/>
  <unicode hex="0065"/>
  <outline>
    <contour>
      <point x="532" y="526" type="line"/>
      <point x="469" y="396"/>
      <point x="482" y="275"/>
      <point x="516" y="180" type="curve"/>
      <point x="300" y="295"/>
      <point x="47" y="274"/>
      <point x="34" y="273" type="curve"/>
      <point x="12" y="271"/>
      <point x="-4" y="253"/>
      <point x="-2" y="231" type="curve"/>
      <point x="0" y="209"/>
      <point x="19" y="193"/>
      <point x="40" y="195" type="curve"/>
      <point x="44" y="195"/>
      <point x="414" y="225"/>
      <point x="615" y="9" type="curve"/>
      <point x="626" y="-5"/>
      <point x="633" y="-12"/>
      <point x="634" y="-12" type="curve"/>
      <point x="649" y="-27"/>
      <point x="672" y="-27"/>
      <point x="688" y="-13" type="curve"/>
      <point x="696" y="-6"/>
      <point x="701" y="5"/>
      <point x="701" y="16" type="curve"/>
      <point x="701" y="25"/>
      <point x="698" y="33"/>
      <point x="692" y="41" type="curve"/>
      <point x="684" y="49"/>
      <point x="677" y="58"/>
      <point x="669" y="66" type="curve"/>
      <point x="621" y="125"/>
      <point x="508" y="295"/>
      <point x="603" y="492" type="curve"/>
      <point x="612" y="512"/>
      <point x="604" y="535"/>
      <point x="584" y="544" type="curve"/>
      <point x="565" y="554"/>
      <point x="541" y="546"/>
      <point x="532" y="526" type="curve"/>
    </contour>
    <contour>
      <point x="992" y="261" type="line"/>
      <point x="992" y="283"/>
      <point x="975" y="300"/>
      <point x="953" y="300" type="curve"/>
      <point x="709" y="300" type="line"/>
      <point x="703" y="349"/>
      <point x="710" y="399"/>
      <point x="745" y="443" type="curve"/>
      <point x="759" y="459"/>
      <point x="757" y="484"/>
      <point x="740" y="498" type="curve"/>
      <point x="723" y="512"/>
      <point x="698" y="509"/>
      <point x="685" y="492" type="curve"/>
      <point x="536" y="310"/>
      <point x="727" y="65"/>
      <point x="736" y="54" type="curve"/>
      <point x="749" y="37"/>
      <point x="774" y="35"/>
      <point x="791" y="48" type="curve"/>
      <point x="801" y="56"/>
      <point x="806" y="67"/>
      <point x="806" y="79" type="curve"/>
      <point x="806" y="88"/>
      <point x="803" y="96"/>
      <point x="797" y="103" type="curve"/>
      <point x="797" y="104"/>
      <point x="757" y="155"/>
      <point x="731" y="222" type="curve"/>
      <point x="954" y="222" type="line"/>
      <point x="976" y="222"/>
      <point x="993" y="240"/>
      <point x="993" y="261" type="curve"/>
    </contour>
  </outline>
</glyph>
<glyph name="f" format="2">
  <advance width="933"/>
  <unicode hex="0066"/>
  <outline>
    <contour>
      <point x="503" y="58" type="curve"/>
      <point x="548" y="58"/>
      <point x="598" y="75"/>
      <point x="627" y="134" type="curve"/>
      <point x="629" y="140"/>
      <point x="631" y="146"/>
      <point x="631" y="152" type="curve"/>
      <point x="631" y="174"/>
      <point x="612" y="191"/>
      <point x="591" y="191" type="curve"/>
      <point x="576" y="191"/>
      <point x="562" y="183"/>
      <point x="555" y="170" type="curve"/>
      <point x="542" y="144"/>
      <point x="521" y="138"/>
      <point x="503" y="138" type="curve"/>
      <point x="489" y="138"/>
      <point x="476" y="141"/>
      <point x="470" y="144" type="curve"/>
      <point x="246" y="290" type="line"/>
      <point x="239" y="295"/>
      <point x="232" y="297"/>
      <point x="224" y="297" type="curve"/>
      <point x="39" y="297" type="line"/>
      <point x="17" y="297"/>
      <point x="-1" y="279"/>
      <point x="-1" y="257" type="curve"/>
      <point x="-1" y="235"/>
      <point x="17" y="217"/>
      <point x="39" y="217" type="curve"/>
      <point x="212" y="217" type="line"/>
      <point x="430" y="75" type="line"/>
      <point x="432" y="73"/>
      <point x="434" y="72"/>
      <point x="436" y="71" type="curve"/>
      <point x="453" y="64"/>
      <point x="477" y="58"/>
    </contour>
    <contour>
      <point x="892" y="240" type="line"/>
      <point x="914" y="240"/>
      <point x="932" y="258"/>
      <point x="932" y="280" type="curve"/>
      <point x="932" y="302"/>
      <point x="914" y="320"/>
      <point x="892" y="320" type="curve"/>
      <point x="719" y="320" type="line"/>
      <point x="502" y="462" type="line"/>
      <point x="490" y="474"/>
      <point x="437" y="479"/>
      <point x="428" y="479" type="curve"/>
      <point x="384" y="479"/>
      <point x="334" y="462"/>
      <point x="305" y="403" type="curve"/>
      <point x="302" y="397"/>
      <point x="301" y="391"/>
      <point x="301" y="385" type="curve"/>
      <point x="301" y="362"/>
      <point x="319" y="345"/>
      <point x="340" y="345" type="curve"/>
      <point x="355" y="345"/>
      <point x="369" y="353"/>
      <point x="376" y="367" type="curve"/>
      <point x="389" y="393"/>
      <point x="410" y="399"/>
      <point x="429" y="399" type="curve"/>
      <point x="443" y="399"/>
      <point x="456" y="396"/>
      <point x="462" y="393" type="curve"/>
      <point x="685" y="246" type="line"/>
      <point x="692" y="242"/>
      <point x="700" y="240"/>
      <point x="707" y="240" type="curve"/>
    </contour>
    <contour>
      <point x="468" y="236" type="curve"/>
      <point x="485" y="236"/>
      <point x="500" y="250"/>
      <point x="500" y="268" type="curve"/>
      <point x="500" y="285"/>
      <point x="485" y="299"/>
      <point x="468" y="299" type="curve"/>
      <point x="450" y="299"/>
      <point x="436" y="285"/>
      <point x="436" y="268" type="curve"/>
      <point x="436" y="250"/>
      <point x="450" y="236"/>
    </contour>
  </outline>
</glyph>
<glyph name="g" format="2">
  <advance width="893"/>
  <unicode hex="0067"/>
  <outline>
    <contour>
      <point x="554" y="29" type="curve"/>
      <point x="408" y="29" type="line"/>
      <point x="399" y="29"/>
      <point x="390" y="32"/>
      <point x="383" y="37" type="curve"/>
      <point x="184" y="193" type="line"/>
      <point x="38" y="193" type="line"/>
      <point x="15" y="193"/>
      <point x="-4" y="212"/>
      <point x="-4" y="234" type="curve"/>
      <point x="-4" y="257"/>
      <point x="15" y="275"/>
      <point x="38" y="275" type="curve"/>
      <point x="198" y="275" type="line"/>
      <point x="207" y="275"/>
      <point x="216" y="272"/>
      <point x="223" y="267" type="curve"/>
      <point x="422" y="111" type="line"/>
      <point x="554" y="111" type="line"/>
      <point x="577" y="111"/>
      <point x="595" y="92"/>
      <point x="595" y="70" type="curve"/>
      <point x="596" y="70" type="line"/>
      <point x="596" y="47"/>
      <point x="577" y="29"/>
    </contour>
    <contour>
      <point x="851" y="193" type="line"/>
      <point x="874" y="193"/>
      <point x="893" y="212"/>
      <point x="893" y="236" type="curve"/>
      <point x="893" y="260"/>
      <point x="874" y="279"/>
      <point x="851" y="279" type="curve"/>
      <point x="615" y="279" type="line"/>
      <point x="617" y="425" type="line"/>
      <point x="617" y="437"/>
      <point x="612" y="447"/>
      <point x="604" y="456" type="curve"/>
      <point x="596" y="464"/>
      <point x="585" y="468"/>
      <point x="574" y="468" type="curve"/>
      <point x="495" y="468" type="line"/>
      <point x="489" y="468"/>
      <point x="484" y="467"/>
      <point x="479" y="465" type="curve"/>
      <point x="445" y="452"/>
      <point x="353" y="415"/>
      <point x="353" y="338" type="curve"/>
      <point x="353" y="258"/>
      <point x="456" y="207"/>
      <point x="477" y="197" type="curve"/>
      <point x="482" y="195"/>
      <point x="489" y="193"/>
      <point x="495" y="193" type="curve"/>
    </contour>
    <contour>
      <point x="530" y="279" type="line"/>
      <point x="505" y="279" type="line"/>
      <point x="470" y="296"/>
      <point x="438" y="324"/>
      <point x="438" y="337" type="curve"/>
      <point x="438" y="338" type="line"/>
      <point x="438" y="343"/>
      <point x="450" y="361"/>
      <point x="503" y="383" type="curve"/>
      <point x="531" y="383" type="line"/>
    </contour>
  </outline>
</glyph>
<glyph name="h" format="2">
  <advance width="910"/>
  <unicode hex="0068"/>
  <outline>
    <contour>
      <point x="492" y="35" type="curve"/>
      <point x="535" y="35"/>
      <point x="584" y="52"/>
      <point x="613" y="110" type="curve"/>
      <point x="615" y="115"/>
      <point x="617" y="121"/>
      <point x="617" y="127" type="curve"/>
      <point x="617" y="149"/>
      <point x="599" y="166"/>
      <point x="578" y="166" type="curve"/>
      <point x="564" y="166"/>
      <point x="550" y="158"/>
      <point x="543" y="144" type="curve"/>
      <point x="531" y="119"/>
      <point x="510" y="112"/>
      <point x="492" y="112" type="curve"/>
      <point x="478" y="112"/>
      <point x="466" y="116"/>
      <point x="460" y="119" type="curve"/>
      <point x="241" y="262" type="line"/>
      <point x="235" y="266"/>
      <point x="227" y="268"/>
      <point x="220" y="268" type="curve"/>
      <point x="40" y="268" type="line"/>
      <point x="18" y="268"/>
      <point x="1" y="251"/>
      <point x="1" y="230" type="curve"/>
      <point x="1" y="208"/>
      <point x="18" y="191"/>
      <point x="40" y="191" type="curve"/>
      <point x="208" y="191" type="line"/>
      <point x="420" y="52" type="line"/>
      <point x="422" y="50"/>
      <point x="424" y="49"/>
      <point x="426" y="48" type="curve"/>
      <point x="443" y="41"/>
      <point x="466" y="35"/>
    </contour>
    <contour>
      <point x="872" y="213" type="line"/>
      <point x="893" y="213"/>
      <point x="910" y="230"/>
      <point x="910" y="252" type="curve"/>
      <point x="910" y="273"/>
      <point x="893" y="291"/>
      <point x="872" y="291" type="curve"/>
      <point x="703" y="291" type="line"/>
      <point x="491" y="430" type="line"/>
      <point x="472" y="439"/>
      <point x="449" y="446"/>
      <point x="419" y="446" type="curve"/>
      <point x="376" y="446"/>
      <point x="327" y="429"/>
      <point x="299" y="372" type="curve"/>
      <point x="296" y="366"/>
      <point x="295" y="360"/>
      <point x="295" y="354" type="curve"/>
      <point x="295" y="333"/>
      <point x="313" y="316"/>
      <point x="333" y="316" type="curve"/>
      <point x="347" y="316"/>
      <point x="361" y="324"/>
      <point x="368" y="337" type="curve"/>
      <point x="380" y="362"/>
      <point x="401" y="369"/>
      <point x="419" y="369" type="curve"/>
      <point x="433" y="369"/>
      <point x="445" y="365"/>
      <point x="452" y="362" type="curve"/>
      <point x="670" y="219" type="line"/>
      <point x="676" y="215"/>
      <point x="684" y="213"/>
      <point x="691" y="213" type="curve"/>
    </contour>
  </outline>
</glyph>
<glyph name="i" format="2">
  <advance width="815"/>
  <unicode hex="0069"/>
  <outline>
    <contour>
      <point x="527" y="16" type="qcurve"/>
      <point x="513" y="16"/>
      <point x="490" y="41"/>
      <point x="480" y="56" type="qcurve"/>
      <point x="438" y="105"/>
      <point x="313" y="195"/>
      <point x="273" y="218" type="qcurve"/>
      <point x="38" y="218" type="line"/>
      <point x="7" y="218"/>
      <point x="1" y="255" type="qcurve"/>
      <point x="1" y="286"/>
      <point x="38" y="292" type="qcurve"/>
      <point x="284" y="292" type="line"/>
      <point x="293" y="292"/>
      <point x="302" y="288" type="qcurve"/>
      <point x="307" y="285"/>
      <point x="375" y="242"/>
      <point x="422" y="208" type="qcurve"/>
      <point x="419" y="229"/>
      <point x="418" y="250" type="qcurve"/>
      <point x="417" y="257" type="line"/>
      <point x="418" y="259" type="line"/>
      <point x="418" y="272" type="line"/>
      <point x="418" y="372"/>
      <point x="501" y="476" type="qcurve"/>
      <point x="514" y="488"/>
      <point x="528" y="488" type="qcurve"/>
      <point x="540" y="488"/>
      <point x="553" y="479" type="qcurve"/>
      <point x="566" y="465"/>
      <point x="566" y="451" type="qcurve"/>
      <point x="566" y="439"/>
      <point x="557" y="427" type="qcurve"/>
      <point x="500" y="358"/>
      <point x="494" y="292" type="qcurve"/>
      <point x="779" y="292" type="line"/>
      <point x="809" y="292"/>
      <point x="816" y="255" type="qcurve"/>
      <point x="816" y="224"/>
      <point x="779" y="218" type="qcurve"/>
      <point x="495" y="218" type="line"/>
      <point x="514" y="135"/>
      <point x="543" y="97" type="qcurve"/>
      <point x="566" y="67"/>
      <point x="566" y="53" type="qcurve"/>
      <point x="566" y="35"/>
      <point x="550" y="23" type="qcurve"/>
      <point x="538" y="16"/>
    </contour>
    <contour>
      <point x="348" y="307" type="qcurve"/>
      <point x="337" y="307"/>
      <point x="324" y="315" type="qcurve"/>
      <point x="205" y="411" type="line"/>
      <point x="191" y="424"/>
      <point x="191" y="439" type="qcurve"/>
      <point x="191" y="450"/>
      <point x="199" y="462" type="qcurve"/>
      <point x="212" y="476"/>
      <point x="227" y="476" type="qcurve"/>
      <point x="238" y="476"/>
      <point x="251" y="468" type="qcurve"/>
      <point x="371" y="373" type="line"/>
      <point x="385" y="360"/>
      <point x="385" y="344" type="qcurve"/>
      <point x="385" y="332"/>
      <point x="376" y="321" type="qcurve"/>
      <point x="363" y="307"/>
    </contour>
  </outline>
</glyph>
<glyph name="k" format="2">
  <advance width="848"/>
  <unicode hex="006B"/>
  <outline>
    <contour>
      <point x="567" y="430" type="line"/>
      <point x="567" y="451"/>
      <point x="549" y="469"/>
      <point x="528" y="469" type="curve"/>
      <point x="389" y="469" type="line"/>
      <point x="380" y="469"/>
      <point x="372" y="466"/>
      <point x="365" y="461" type="curve"/>
      <point x="177" y="313" type="line"/>
      <point x="38" y="313" type="line"/>
      <point x="17" y="313"/>
      <point x="-1" y="296"/>
      <point x="-1" y="274" type="curve"/>
      <point x="-1" y="253"/>
      <point x="17" y="236"/>
      <point x="38" y="236" type="curve"/>
      <point x="190" y="236" type="line"/>
      <point x="199" y="236"/>
      <point x="207" y="238"/>
      <point x="214" y="244" type="curve"/>
      <point x="402" y="391" type="line"/>
      <point x="527" y="391" type="line"/>
      <point x="549" y="391"/>
      <point x="566" y="409"/>
      <point x="566" y="430" type="curve"/>
    </contour>
    <contour>
      <point x="337" y="174" type="line"/>
      <point x="339" y="102"/>
      <point x="427" y="67"/>
      <point x="457" y="56" type="curve"/>
      <point x="461" y="54"/>
      <point x="466" y="53"/>
      <point x="471" y="53" type="curve"/>
      <point x="546" y="53" type="line"/>
      <point x="557" y="53"/>
      <point x="568" y="58"/>
      <point x="575" y="65" type="curve"/>
      <point x="583" y="72"/>
      <point x="587" y="83"/>
      <point x="587" y="94" type="curve"/>
      <point x="585" y="232" type="line"/>
      <point x="808" y="232" type="line"/>
      <point x="830" y="232"/>
      <point x="849" y="251"/>
      <point x="849" y="273" type="curve"/>
      <point x="849" y="295"/>
      <point x="831" y="313"/>
      <point x="808" y="313" type="curve"/>
      <point x="471" y="313" type="line"/>
      <point x="466" y="313"/>
      <point x="460" y="312"/>
      <point x="455" y="310" type="curve"/>
      <point x="435" y="301"/>
      <point x="337" y="252"/>
      <point x="337" y="177" type="curve"/>
      <point x="337" y="176"/>
      <point x="337" y="175"/>
      <point x="337" y="174" type="curve"/>
    </contour>
    <contour>
      <point x="480" y="232" type="line"/>
      <point x="504" y="232" type="line"/>
      <point x="506" y="134" type="line"/>
      <point x="479" y="134" type="line"/>
      <point x="429" y="154"/>
      <point x="417" y="171"/>
      <point x="417" y="177" type="curve"/>
      <point x="417" y="177"/>
      <point x="417" y="177"/>
      <point x="417" y="177" type="curve"/>
      <point x="417" y="189"/>
      <point x="447" y="215"/>
      <point x="480" y="232" type="curve"/>
    </contour>
  </outline>
</glyph>
<glyph name="l" format="2">
  <advance width="870"/>
  <unicode hex="006C"/>
  <outline>
    <contour>
      <point x="512" y="2" type="qcurve"/>
      <point x="502" y="2"/>
      <point x="462" y="6"/>
      <point x="414" y="23"/>
      <point x="385" y="38"/>
      <point x="384" y="40" type="qcurve"/>
      <point x="380" y="42" type="line"/>
      <point x="180" y="212" type="line"/>
      <point x="46" y="212" type="line"/>
      <point x="28" y="212"/>
      <point x="1" y="238"/>
      <point x="1" y="257" type="qcurve"/>
      <point x="1" y="276"/>
      <point x="28" y="302"/>
      <point x="46" y="302" type="qcurve"/>
      <point x="178" y="302" type="line"/>
      <point x="378" y="494" type="line"/>
      <point x="392" y="506"/>
      <point x="409" y="506" type="qcurve"/>
      <point x="513" y="506" type="line"/>
      <point x="532" y="506"/>
      <point x="558" y="480"/>
      <point x="558" y="461" type="qcurve"/>
      <point x="558" y="443"/>
      <point x="532" y="416"/>
      <point x="513" y="416" type="qcurve"/>
      <point x="427" y="416" type="line"/>
      <point x="264" y="259" type="line"/>
      <point x="436" y="113" type="line"/>
      <point x="445" y="106"/>
      <point x="481" y="96" type="qcurve"/>
      <point x="494" y="92"/>
      <point x="508" y="92" type="qcurve"/>
      <point x="535" y="92"/>
      <point x="566" y="104" type="qcurve"/>
      <point x="566" y="212" type="line"/>
      <point x="441" y="212" type="line"/>
      <point x="422" y="212"/>
      <point x="396" y="238"/>
      <point x="396" y="257" type="qcurve"/>
      <point x="396" y="276"/>
      <point x="422" y="302"/>
      <point x="441" y="302" type="qcurve"/>
      <point x="825" y="302" type="line"/>
      <point x="844" y="302"/>
      <point x="870" y="276"/>
      <point x="870" y="257" type="qcurve"/>
      <point x="870" y="238"/>
      <point x="844" y="212"/>
      <point x="825" y="212" type="qcurve"/>
      <point x="656" y="212" type="line"/>
      <point x="656" y="77" type="line"/>
      <point x="656" y="54"/>
      <point x="635" y="39" type="qcurve"/>
      <point x="577" y="2"/>
    </contour>
  </outline>
</glyph>
<glyph name="m" format="2">
  <advance width="849"/>
  <unicode hex="006D"/>
  <outline>
    <contour>
      <point x="370" y="94" type="line"/>
      <point x="380" y="94"/>
      <point x="389" y="99" type="qcurve"/>
      <point x="697" y="282" type="line"/>
      <point x="810" y="282" type="line"/>
      <point x="827" y="282"/>
      <point x="851" y="308"/>
      <point x="851" y="327" type="qcurve"/>
      <point x="851" y="346"/>
      <point x="827" y="372"/>
      <point x="810" y="372" type="qcurve"/>
      <point x="687" y="372" type="line"/>
      <point x="676" y="372"/>
      <point x="667" y="367" type="qcurve"/>
      <point x="360" y="184" type="line"/>
      <point x="242" y="184" type="line"/>
      <point x="230" y="210"/>
      <point x="230" y="232" type="qcurve"/>
      <point x="230" y="237"/>
      <point x="234" y="267"/>
      <point x="242" y="282" type="qcurve"/>
      <point x="370" y="282" type="line"/>
      <point x="387" y="282"/>
      <point x="411" y="308"/>
      <point x="411" y="327" type="qcurve"/>
      <point x="411" y="346"/>
      <point x="387" y="372"/>
      <point x="370" y="372" type="qcurve"/>
      <point x="43" y="372" type="line"/>
      <point x="26" y="372"/>
      <point x="2" y="346"/>
      <point x="2" y="327" type="qcurve"/>
      <point x="2" y="308"/>
      <point x="26" y="282"/>
      <point x="43" y="282" type="qcurve"/>
      <point x="154" y="282" type="line"/>
      <point x="148" y="259"/>
      <point x="148" y="232" type="qcurve"/>
      <point x="148" y="218"/>
      <point x="156" y="158"/>
      <point x="186" y="112" type="qcurve"/>
      <point x="200" y="94"/>
      <point x="219" y="94" type="qcurve"/>
    </contour>
  </outline>
</glyph>
<glyph name="n" format="2">
  <advance width="857"/>
  <unicode hex="006E"/>
  <outline>
    <contour>
      <point x="814" y="119" type="qcurve"/>
      <point x="690" y="119" type="line"/>
      <point x="679" y="119"/>
      <point x="670" y="124" type="qcurve"/>
      <point x="360" y="308" type="line"/>
      <point x="241" y="308" type="line"/>
      <point x="229" y="281"/>
      <point x="229" y="260" type="qcurve"/>
      <point x="229" y="255"/>
      <point x="232" y="225"/>
      <point x="240" y="210" type="qcurve"/>
      <point x="370" y="210" type="line"/>
      <point x="388" y="210"/>
      <point x="412" y="183"/>
      <point x="412" y="164" type="qcurve"/>
      <point x="412" y="145"/>
      <point x="387" y="119"/>
      <point x="370" y="119" type="qcurve"/>
      <point x="39" y="119" type="line"/>
      <point x="22" y="119"/>
      <point x="-2" y="145"/>
      <point x="-2" y="164" type="qcurve"/>
      <point x="-2" y="183"/>
      <point x="22" y="210"/>
      <point x="39" y="210" type="qcurve"/>
      <point x="152" y="210" type="line"/>
      <point x="146" y="233"/>
      <point x="146" y="259" type="qcurve"/>
      <point x="146" y="275"/>
      <point x="154" y="335"/>
      <point x="185" y="381" type="qcurve"/>
      <point x="198" y="400"/>
      <point x="218" y="400" type="qcurve"/>
      <point x="370" y="400" type="line"/>
      <point x="381" y="400"/>
      <point x="390" y="394" type="qcurve"/>
      <point x="700" y="210" type="line"/>
      <point x="814" y="210" type="line"/>
      <point x="832" y="210"/>
      <point x="856" y="183"/>
      <point x="856" y="164" type="qcurve"/>
      <point x="856" y="145"/>
      <point x="831" y="119"/>
    </contour>
  </outline>
</glyph>
<glyph name="p" format="2">
  <advance width="885"/>
  <unicode hex="0070"/>
  <outline>
    <contour>
      <point x="382" y="117" type="line"/>
      <point x="400" y="117"/>
      <point x="425" y="143"/>
      <point x="425" y="160" type="qcurve"/>
      <point x="425" y="178"/>
      <point x="400" y="204"/>
      <point x="382" y="204" type="qcurve"/>
      <point x="41" y="204" type="line"/>
      <point x="23" y="204"/>
      <point x="-2" y="178"/>
      <point x="-2" y="160" type="qcurve"/>
      <point x="-2" y="143"/>
      <point x="23" y="117"/>
      <point x="41" y="117" type="qcurve"/>
    </contour>
    <contour>
      <point x="835" y="116" type="line"/>
      <point x="855" y="116"/>
      <point x="883" y="144"/>
      <point x="883" y="164" type="qcurve"/>
      <point x="883" y="184"/>
      <point x="855" y="212"/>
      <point x="835" y="212" type="qcurve"/>
      <point x="662" y="212" type="line"/>
      <point x="427" y="397" type="line"/>
      <point x="413" y="407"/>
      <point x="397" y="407" type="qcurve"/>
      <point x="224" y="407" type="line"/>
      <point x="204" y="407"/>
      <point x="175" y="379"/>
      <point x="175" y="358" type="qcurve"/>
      <point x="175" y="359" type="line"/>
      <point x="175" y="339"/>
      <point x="204" y="310"/>
      <point x="224" y="310" type="qcurve"/>
      <point x="381" y="310" type="line"/>
      <point x="615" y="126" type="line"/>
      <point x="629" y="116"/>
      <point x="645" y="116" type="qcurve"/>
    </contour>
  </outline>
</glyph>
<glyph name="q" format="2">
  <advance width="880"/>
  <unicode hex="0071"/>
  <outline>
    <contour>
      <point x="491" y="242" type="qcurve"/>
      <point x="488" y="256"/>
      <point x="480" y="264"/>
      <point x="468" y="266" type="qcurve"/>
      <point x="464" y="266" type="line"/>
      <point x="445" y="266"/>
      <point x="421" y="241"/>
      <point x="421" y="223" type="qcurve"/>
      <point x="421" y="208"/>
      <point x="430" y="196" type="qcurve"/>
      <point x="442" y="179"/>
      <point x="465" y="179" type="qcurve"/>
      <point x="482" y="179"/>
      <point x="490" y="184"/>
      <point x="493" y="199" type="qcurve"/>
      <point x="494" y="203"/>
      <point x="494" y="213" type="qcurve"/>
      <point x="494" y="230"/>
    </contour>
    <contour>
      <point x="642" y="549" type="qcurve"/>
      <point x="658" y="557"/>
      <point x="664" y="557" type="qcurve"/>
      <point x="671" y="557"/>
      <point x="685" y="546" type="qcurve"/>
      <point x="691" y="542"/>
      <point x="695" y="537"/>
      <point x="698" y="525"/>
      <point x="698" y="513" type="qcurve"/>
      <point x="698" y="506"/>
      <point x="697" y="486"/>
      <point x="695" y="449"/>
      <point x="694" y="433" type="qcurve"/>
      <point x="692" y="401"/>
      <point x="692" y="394" type="qcurve"/>
      <point x="692" y="372"/>
      <point x="710" y="362"/>
      <point x="744" y="362" type="qcurve"/>
      <point x="754" y="362" type="line"/>
      <point x="809" y="362"/>
      <point x="817" y="354" type="qcurve"/>
      <point x="830" y="341"/>
      <point x="830" y="315" type="qcurve"/>
      <point x="830" y="304"/>
      <point x="827" y="296" type="qcurve"/>
      <point x="822" y="282"/>
      <point x="784" y="273"/>
      <point x="735" y="272" type="qcurve"/>
      <point x="694" y="272" type="line"/>
      <point x="698" y="193" type="line"/>
      <point x="700" y="145"/>
      <point x="700" y="140" type="qcurve"/>
      <point x="700" y="113"/>
      <point x="678" y="85"/>
      <point x="668" y="85" type="qcurve"/>
      <point x="662" y="85"/>
      <point x="659" y="86" type="qcurve"/>
      <point x="640" y="90"/>
      <point x="636" y="97" type="qcurve"/>
      <point x="631" y="106"/>
      <point x="628" y="172" type="qcurve"/>
      <point x="624" y="252"/>
      <point x="617" y="261" type="qcurve"/>
      <point x="613" y="267"/>
      <point x="596" y="267" type="qcurve"/>
      <point x="587" y="267" type="line"/>
      <point x="554" y="267" type="line"/>
      <point x="554" y="240" type="line"/>
      <point x="554" y="236"/>
      <point x="553" y="219"/>
      <point x="553" y="215" type="qcurve"/>
      <point x="553" y="210"/>
      <point x="554" y="197"/>
      <point x="554" y="194" type="qcurve"/>
      <point x="554" y="177"/>
      <point x="527" y="124"/>
      <point x="513" y="114" type="qcurve"/>
      <point x="498" y="103"/>
      <point x="460" y="102" type="qcurve"/>
      <point x="455" y="102" type="line"/>
      <point x="417" y="102"/>
      <point x="378" y="132"/>
      <point x="362" y="172" type="qcurve"/>
      <point x="349" y="204"/>
      <point x="349" y="230" type="qcurve"/>
      <point x="349" y="260"/>
      <point x="367" y="297" type="qcurve"/>
      <point x="381" y="324"/>
      <point x="440" y="345"/>
      <point x="505" y="345" type="qcurve"/>
      <point x="516" y="345" type="line"/>
      <point x="537" y="345" type="line"/>
      <point x="594" y="345"/>
      <point x="604" y="348" type="qcurve"/>
      <point x="620" y="351" type="line"/>
      <point x="616" y="421" type="line"/>
      <point x="614" y="453"/>
      <point x="614" y="464" type="qcurve"/>
      <point x="614" y="534"/>
    </contour>
    <contour>
      <point x="354" y="556" type="qcurve"/>
      <point x="373" y="563"/>
      <point x="377" y="563" type="qcurve"/>
      <point x="379" y="563" type="line"/>
      <point x="391" y="563"/>
      <point x="446" y="538"/>
      <point x="456" y="528" type="qcurve"/>
      <point x="470" y="513"/>
      <point x="470" y="503" type="qcurve"/>
      <point x="470" y="501"/>
      <point x="468" y="489" type="qcurve"/>
      <point x="464" y="469"/>
      <point x="455" y="469" type="qcurve"/>
      <point x="454" y="469"/>
      <point x="442" y="471" type="qcurve"/>
      <point x="389" y="479"/>
      <point x="378" y="479" type="qcurve"/>
      <point x="363" y="479"/>
      <point x="346" y="468" type="qcurve"/>
      <point x="301" y="437"/>
      <point x="261" y="358" type="qcurve"/>
      <point x="236" y="308"/>
      <point x="220" y="292" type="qcurve"/>
      <point x="192" y="267"/>
      <point x="113" y="267" type="qcurve"/>
      <point x="58" y="267" type="line"/>
      <point x="52" y="287" type="line"/>
      <point x="50" y="297"/>
      <point x="50" y="300" type="qcurve"/>
      <point x="50" y="311"/>
      <point x="64" y="337"/>
      <point x="78" y="341"/>
      <point x="111" y="342" type="qcurve"/>
      <point x="134" y="343"/>
      <point x="149" y="342"/>
      <point x="176" y="352"/>
      <point x="181" y="356"/>
      <point x="201" y="385"/>
      <point x="209" y="405"/>
      <point x="222" y="435" type="qcurve"/>
      <point x="238" y="472"/>
      <point x="319" y="546"/>
    </contour>
  </outline>
</glyph>
<glyph name="r" format="2">
  <advance width="828"/>
  <unicode hex="0072"/>
  <outline>
    <contour>
      <point x="366" y="437" type="line"/>
      <point x="199" y="295" type="line"/>
      <point x="37" y="295" type="line"/>
      <point x="16" y="295"/>
      <point x="-1" y="278"/>
      <point x="-1" y="257" type="curve"/>
      <point x="-1" y="236"/>
      <point x="16" y="220"/>
      <point x="37" y="220" type="curve"/>
      <point x="198" y="220" type="line"/>
      <point x="364" y="59" type="line"/>
      <point x="371" y="52"/>
      <point x="381" y="49"/>
      <point x="390" y="49" type="curve"/>
      <point x="478" y="49" type="line"/>
      <point x="499" y="49"/>
      <point x="515" y="65"/>
      <point x="515" y="86" type="curve"/>
      <point x="515" y="107"/>
      <point x="499" y="124"/>
      <point x="478" y="124" type="curve"/>
      <point x="406" y="124" type="line"/>
      <point x="269" y="256" type="line"/>
      <point x="413" y="378" type="line"/>
      <point x="422" y="383"/>
      <point x="469" y="409"/>
      <point x="522" y="386" type="curve"/>
      <point x="522" y="295" type="line"/>
      <point x="417" y="295" type="line"/>
      <point x="396" y="295"/>
      <point x="379" y="278"/>
      <point x="379" y="258" type="curve"/>
      <point x="379" y="237"/>
      <point x="396" y="220"/>
      <point x="417" y="220" type="curve"/>
      <point x="789" y="220" type="line"/>
      <point x="810" y="220"/>
      <point x="827" y="237"/>
      <point x="827" y="258" type="curve"/>
      <point x="827" y="278"/>
      <point x="810" y="295"/>
      <point x="789" y="295" type="curve"/>
      <point x="597" y="295" type="line"/>
      <point x="597" y="409" type="line"/>
      <point x="597" y="421"/>
      <point x="591" y="433"/>
      <point x="580" y="440" type="curve"/>
      <point x="473" y="508"/>
      <point x="373" y="443"/>
      <point x="369" y="440" type="curve"/>
      <point x="368" y="439"/>
      <point x="367" y="438"/>
      <point x="366" y="437" type="curve"/>
    </contour>
  </outline>
</glyph>
<glyph name="s" format="2">
  <advance width="868"/>
  <unicode hex="0073"/>
  <outline>
    <contour>
      <point x="365" y="30" type="curve"/>
      <point x="429" y="30"/>
      <point x="476" y="61"/>
      <point x="479" y="63" type="curve"/>
      <point x="482" y="65"/>
      <point x="483" y="64"/>
      <point x="483" y="66" type="curve"/>
      <point x="658" y="215" type="line"/>
      <point x="829" y="215" type="line"/>
      <point x="850" y="215"/>
      <point x="868" y="232"/>
      <point x="868" y="254" type="curve"/>
      <point x="868" y="276"/>
      <point x="850" y="294"/>
      <point x="829" y="294" type="curve"/>
      <point x="660" y="294" type="line"/>
      <point x="484" y="462" type="line"/>
      <point x="477" y="469"/>
      <point x="467" y="473"/>
      <point x="457" y="473" type="curve"/>
      <point x="365" y="473" type="line"/>
      <point x="343" y="473"/>
      <point x="326" y="456"/>
      <point x="326" y="434" type="curve"/>
      <point x="326" y="412"/>
      <point x="343" y="394"/>
      <point x="365" y="394" type="curve"/>
      <point x="441" y="394" type="line"/>
      <point x="585" y="256" type="line"/>
      <point x="434" y="128" type="line"/>
      <point x="427" y="124"/>
      <point x="400" y="110"/>
      <point x="366" y="110" type="curve"/>
      <point x="351" y="110"/>
      <point x="335" y="112"/>
      <point x="319" y="119" type="curve"/>
      <point x="319" y="214" type="line"/>
      <point x="429" y="214" type="line"/>
      <point x="451" y="214"/>
      <point x="469" y="232"/>
      <point x="469" y="254" type="curve"/>
      <point x="469" y="276"/>
      <point x="451" y="294"/>
      <point x="429" y="294" type="curve"/>
      <point x="38" y="294" type="line"/>
      <point x="16" y="294"/>
      <point x="-2" y="276"/>
      <point x="-2" y="254" type="curve"/>
      <point x="-2" y="232"/>
      <point x="16" y="214"/>
      <point x="38" y="214" type="curve"/>
      <point x="239" y="214" type="line"/>
      <point x="239" y="96" type="line"/>
      <point x="239" y="82"/>
      <point x="246" y="70"/>
      <point x="258" y="62" type="curve"/>
      <point x="296" y="38"/>
      <point x="333" y="30"/>
    </contour>
  </outline>
</glyph>
<glyph name="t" format="2">
  <advance width="738"/>
  <unicode hex="0074"/>
  <outline>
    <contour>
      <point x="699" y="147" type="line"/>
      <point x="718" y="147"/>
      <point x="734" y="163"/>
      <point x="734" y="183" type="curve"/>
      <point x="734" y="202"/>
      <point x="718" y="218"/>
      <point x="699" y="218" type="curve"/>
      <point x="417" y="218" type="line"/>
      <point x="397" y="218"/>
      <point x="381" y="202"/>
      <point x="381" y="183" type="curve"/>
      <point x="381" y="163"/>
      <point x="397" y="147"/>
      <point x="417" y="147" type="curve"/>
    </contour>
    <contour>
      <point x="199" y="145" type="line"/>
      <point x="208" y="145"/>
      <point x="217" y="149"/>
      <point x="224" y="154" type="curve"/>
      <point x="418" y="306" type="line"/>
      <point x="547" y="306" type="line"/>
      <point x="569" y="306"/>
      <point x="587" y="324"/>
      <point x="588" y="346" type="curve"/>
      <point x="588" y="369"/>
      <point x="570" y="387"/>
      <point x="547" y="387" type="curve"/>
      <point x="404" y="387" type="line"/>
      <point x="395" y="387"/>
      <point x="386" y="383"/>
      <point x="379" y="378" type="curve"/>
      <point x="185" y="226" type="line"/>
      <point x="42" y="226" type="line"/>
      <point x="20" y="226"/>
      <point x="2" y="208"/>
      <point x="2" y="186" type="curve"/>
      <point x="2" y="163"/>
      <point x="20" y="145"/>
      <point x="42" y="145" type="curve"/>
    </contour>
  </outline>
</glyph>
<glyph name="w" format="2">
  <advance width="839"/>
  <unicode hex="0077"/>
  <outline>
    <contour>
      <point x="484" y="6" type="curve"/>
      <point x="506" y="6"/>
      <point x="524" y="22"/>
      <point x="524" y="45" type="curve"/>
      <point x="524" y="52"/>
      <point x="521" y="58"/>
      <point x="518" y="65" type="curve"/>
      <point x="517" y="65"/>
      <point x="455" y="174"/>
      <point x="455" y="308" type="curve"/>
      <point x="455" y="350"/>
      <point x="461" y="394"/>
      <point x="477" y="438" type="curve"/>
      <point x="478" y="443"/>
      <point x="479" y="447"/>
      <point x="479" y="451" type="curve"/>
      <point x="479" y="474"/>
      <point x="462" y="491"/>
      <point x="440" y="491" type="curve"/>
      <point x="432" y="491"/>
      <point x="425" y="489"/>
      <point x="418" y="484" type="curve"/>
      <point x="274" y="388"/>
      <point x="266" y="364"/>
      <point x="262" y="354" type="curve"/>
      <point x="261" y="349"/>
      <point x="260" y="344"/>
      <point x="260" y="340" type="curve"/>
      <point x="260" y="318"/>
      <point x="277" y="301"/>
      <point x="298" y="301" type="curve"/>
      <point x="323" y="301"/>
      <point x="314" y="314"/>
      <point x="379" y="360" type="curve"/>
      <point x="378" y="343"/>
      <point x="377" y="325"/>
      <point x="377" y="308" type="curve"/>
      <point x="377" y="247"/>
      <point x="388" y="192"/>
      <point x="401" y="146" type="curve"/>
      <point x="237" y="248"/>
      <point x="49" y="287"/>
      <point x="38" y="287" type="curve"/>
      <point x="17" y="287"/>
      <point x="-1" y="269"/>
      <point x="-1" y="248" type="curve"/>
      <point x="-1" y="227"/>
      <point x="16" y="209"/>
      <point x="38" y="209" type="curve"/>
      <point x="41" y="209"/>
      <point x="308" y="141"/>
      <point x="459" y="15" type="curve"/>
      <point x="466" y="9"/>
      <point x="475" y="6"/>
    </contour>
    <contour>
      <point x="608" y="20" type="curve"/>
      <point x="628" y="20"/>
      <point x="645" y="36"/>
      <point x="647" y="56" type="curve"/>
      <point x="647" y="65"/>
      <point x="646" y="73"/>
      <point x="641" y="81" type="curve"/>
      <point x="640" y="82"/>
      <point x="605" y="140"/>
      <point x="584" y="209" type="curve"/>
      <point x="796" y="208" type="line"/>
      <point x="816" y="208"/>
      <point x="833" y="224"/>
      <point x="835" y="244" type="curve"/>
      <point x="836" y="243" type="line"/>
      <point x="836" y="245" type="line"/>
      <point x="836" y="266"/>
      <point x="820" y="285"/>
      <point x="800" y="286" type="curve"/>
      <point x="571" y="288" type="line"/>
      <point x="571" y="303" type="line"/>
      <point x="571" y="346"/>
      <point x="584" y="385"/>
      <point x="619" y="421" type="curve"/>
      <point x="626" y="428"/>
      <point x="630" y="438"/>
      <point x="630" y="448" type="curve"/>
      <point x="630" y="469"/>
      <point x="612" y="488"/>
      <point x="591" y="488" type="curve"/>
      <point x="581" y="488"/>
      <point x="570" y="484"/>
      <point x="563" y="475" type="curve"/>
      <point x="510" y="421"/>
      <point x="491" y="357"/>
      <point x="491" y="295" type="curve"/>
      <point x="491" y="166"/>
      <point x="570" y="45"/>
      <point x="576" y="37" type="curve"/>
      <point x="583" y="26"/>
      <point x="596" y="20"/>
    </contour>
  </outline>
</glyph>
<glyph name="x" format="2">
  <advance width="943"/>
  <unicode hex="0078"/>
  <outline>
    <contour>
      <point x="720" y="546" type="qcurve"/>
      <point x="734" y="558"/>
      <point x="749" y="558" type="qcurve"/>
      <point x="763" y="558"/>
      <point x="782" y="537"/>
      <point x="782" y="521" type="qcurve"/>
      <point x="782" y="515"/>
      <point x="781" y="512" type="qcurve"/>
      <point x="768" y="428"/>
      <point x="768" y="377" type="qcurve"/>
      <point x="768" y="372" type="line"/>
      <point x="773" y="356"/>
      <point x="810" y="356" type="qcurve"/>
      <point x="825" y="356"/>
      <point x="836" y="360" type="qcurve"/>
      <point x="851" y="365"/>
      <point x="859" y="365" type="qcurve"/>
      <point x="881" y="365"/>
      <point x="890" y="336" type="qcurve"/>
      <point x="893" y="329"/>
      <point x="893" y="319" type="qcurve"/>
      <point x="893" y="289"/>
      <point x="872" y="279" type="qcurve"/>
      <point x="861" y="274"/>
      <point x="804" y="262"/>
      <point x="790" y="262" type="qcurve"/>
      <point x="778" y="262"/>
      <point x="772" y="256"/>
      <point x="772" y="243" type="qcurve"/>
      <point x="772" y="223"/>
      <point x="781" y="167" type="qcurve"/>
      <point x="786" y="132"/>
      <point x="786" y="114" type="qcurve"/>
      <point x="786" y="60"/>
      <point x="748" y="60" type="qcurve"/>
      <point x="731" y="60"/>
      <point x="718" y="89"/>
      <point x="713" y="138" type="qcurve"/>
      <point x="711" y="154"/>
      <point x="704" y="219"/>
      <point x="703" y="228" type="qcurve"/>
      <point x="699" y="263" type="line"/>
      <point x="671" y="260" type="line"/>
      <point x="648" y="258"/>
      <point x="588" y="232"/>
      <point x="588" y="225" type="qcurve"/>
      <point x="588" y="207"/>
      <point x="501" y="149" type="qcurve"/>
      <point x="470" y="129"/>
      <point x="470" y="121"/>
      <point x="408" y="97"/>
      <point x="384" y="91" type="qcurve"/>
      <point x="347" y="81"/>
      <point x="286" y="81" type="qcurve"/>
      <point x="251" y="81"/>
      <point x="228" y="86" type="qcurve"/>
      <point x="204" y="92"/>
      <point x="193" y="102"/>
      <point x="193" y="119" type="qcurve"/>
      <point x="193" y="138"/>
      <point x="215" y="165"/>
      <point x="230" y="165" type="qcurve"/>
      <point x="235" y="165"/>
      <point x="238" y="164" type="qcurve"/>
      <point x="262" y="158"/>
      <point x="292" y="158" type="qcurve"/>
      <point x="366" y="158"/>
      <point x="427" y="188" type="qcurve"/>
      <point x="448" y="199"/>
      <point x="541" y="281"/>
      <point x="541" y="290" type="qcurve"/>
      <point x="541" y="295"/>
      <point x="521" y="302" type="qcurve"/>
      <point x="507" y="307"/>
      <point x="442" y="369"/>
      <point x="412" y="408" type="qcurve"/>
      <point x="365" y="465"/>
      <point x="306" y="473" type="qcurve"/>
      <point x="301" y="474"/>
      <point x="291" y="474" type="qcurve"/>
      <point x="266" y="474"/>
      <point x="215" y="460"/>
      <point x="207" y="451" type="qcurve"/>
      <point x="202" y="446"/>
      <point x="202" y="442" type="qcurve"/>
      <point x="202" y="437"/>
      <point x="225" y="408" type="qcurve"/>
      <point x="253" y="374"/>
      <point x="289" y="354"/>
      <point x="328" y="352" type="qcurve"/>
      <point x="365" y="351"/>
      <point x="387" y="337"/>
      <point x="391" y="314" type="qcurve"/>
      <point x="392" y="310"/>
      <point x="392" y="304" type="qcurve"/>
      <point x="392" y="292"/>
      <point x="378" y="277" type="qcurve"/>
      <point x="362" y="260" type="line"/>
      <point x="279" y="263" type="line"/>
      <point x="266" y="264"/>
      <point x="239" y="264" type="qcurve"/>
      <point x="187" y="264"/>
      <point x="157" y="260" type="qcurve"/>
      <point x="138" y="257"/>
      <point x="129" y="257" type="qcurve"/>
      <point x="118" y="257"/>
      <point x="114" y="264" type="qcurve"/>
      <point x="110" y="273"/>
      <point x="97" y="273" type="qcurve"/>
      <point x="88" y="273"/>
      <point x="83" y="267" type="qcurve"/>
      <point x="80" y="262"/>
      <point x="64" y="262" type="qcurve"/>
      <point x="54" y="262"/>
      <point x="50" y="271"/>
      <point x="50" y="297" type="qcurve"/>
      <point x="50" y="327"/>
      <point x="64" y="342"/>
      <point x="97" y="347" type="qcurve"/>
      <point x="120" y="351"/>
      <point x="162" y="364"/>
      <point x="162" y="368" type="qcurve"/>
      <point x="162" y="375"/>
      <point x="151" y="389" type="qcurve"/>
      <point x="139" y="407"/>
      <point x="139" y="447" type="qcurve"/>
      <point x="139" y="467"/>
      <point x="144" y="482" type="qcurve"/>
      <point x="150" y="497"/>
      <point x="181" y="518" type="qcurve"/>
      <point x="229" y="551"/>
      <point x="296" y="551" type="qcurve"/>
      <point x="321" y="551"/>
      <point x="342" y="547" type="qcurve"/>
      <point x="379" y="540"/>
      <point x="427" y="510"/>
      <point x="457" y="475" type="qcurve"/>
      <point x="519" y="403"/>
      <point x="595" y="354"/>
      <point x="645" y="353" type="qcurve"/>
      <point x="687" y="352" type="line"/>
      <point x="694" y="430" type="line"/>
      <point x="701" y="501"/>
      <point x="708" y="534"/>
    </contour>
  </outline>
</glyph>
<glyph name="y" format="2">
  <advance width="850"/>
  <unicode hex="0079"/>
  <outline>
    <contour>
      <point x="491" y="5" type="curve"/>
      <point x="482" y="5"/>
      <point x="472" y="9"/>
      <point x="464" y="15" type="curve"/>
      <point x="313" y="143"/>
      <point x="43" y="211"/>
      <point x="40" y="211" type="curve"/>
      <point x="18" y="211"/>
      <point x="1" y="228"/>
      <point x="1" y="250" type="curve"/>
      <point x="1" y="272"/>
      <point x="19" y="289"/>
      <point x="41" y="289" type="curve"/>
      <point x="51" y="289"/>
      <point x="241" y="250"/>
      <point x="407" y="147" type="curve"/>
      <point x="393" y="192"/>
      <point x="382" y="248"/>
      <point x="382" y="309" type="curve"/>
      <point x="382" y="327"/>
      <point x="383" y="345"/>
      <point x="385" y="364" type="curve"/>
      <point x="385" y="364"/>
      <point x="402" y="470"/>
      <point x="424" y="487" type="curve"/>
      <point x="424" y="488" type="line"/>
      <point x="430" y="493"/>
      <point x="437" y="495"/>
      <point x="444" y="495" type="curve"/>
      <point x="466" y="495"/>
      <point x="485" y="477"/>
      <point x="485" y="456" type="curve"/>
      <point x="485" y="451"/>
      <point x="484" y="447"/>
      <point x="482" y="442" type="curve"/>
      <point x="467" y="398"/>
      <point x="461" y="354"/>
      <point x="461" y="312" type="curve"/>
      <point x="461" y="176"/>
      <point x="524" y="66"/>
      <point x="525" y="65" type="curve"/>
      <point x="529" y="58"/>
      <point x="530" y="52"/>
      <point x="530" y="45" type="curve"/>
      <point x="530" y="22"/>
      <point x="513" y="5"/>
    </contour>
    <contour>
      <point x="616" y="21" type="curve"/>
      <point x="638" y="21"/>
      <point x="654" y="39"/>
      <point x="654" y="61" type="curve"/>
      <point x="654" y="68"/>
      <point x="652" y="75"/>
      <point x="648" y="81" type="curve"/>
      <point x="647" y="82"/>
      <point x="612" y="141"/>
      <point x="592" y="210" type="curve"/>
      <point x="805" y="210" type="line"/>
      <point x="825" y="210"/>
      <point x="842" y="225"/>
      <point x="844" y="246" type="curve"/>
      <point x="844" y="250" type="line"/>
      <point x="844" y="269"/>
      <point x="829" y="287"/>
      <point x="808" y="288" type="curve"/>
      <point x="578" y="290" type="line"/>
      <point x="577" y="305" type="line"/>
      <point x="577" y="348"/>
      <point x="591" y="389"/>
      <point x="626" y="425" type="curve"/>
      <point x="634" y="432"/>
      <point x="637" y="442"/>
      <point x="637" y="452" type="curve"/>
      <point x="637" y="474"/>
      <point x="619" y="492"/>
      <point x="598" y="492" type="curve"/>
      <point x="588" y="492"/>
      <point x="577" y="488"/>
      <point x="570" y="479" type="curve"/>
      <point x="516" y="425"/>
      <point x="498" y="360"/>
      <point x="498" y="298" type="curve"/>
      <point x="498" y="167"/>
      <point x="577" y="46"/>
      <point x="583" y="38" type="curve"/>
      <point x="590" y="27"/>
      <point x="603" y="21"/>
    </contour>
    <contour>
      <point x="279" y="319" type="curve"/>
      <point x="290" y="319"/>
      <point x="301" y="324"/>
      <point x="309" y="334" type="curve"/>
      <point x="314" y="341"/>
      <point x="317" y="350"/>
      <point x="317" y="358" type="curve"/>
      <point x="317" y="369"/>
      <point x="312" y="380"/>
      <point x="302" y="388" type="curve"/>
      <point x="178" y="486" type="line"/>
      <point x="171" y="492"/>
      <point x="163" y="495"/>
      <point x="155" y="495" type="curve"/>
      <point x="133" y="495"/>
      <point x="116" y="478"/>
      <point x="116" y="456" type="curve"/>
      <point x="116" y="445"/>
      <point x="121" y="433"/>
      <point x="131" y="426" type="curve"/>
      <point x="254" y="328" type="line"/>
      <point x="262" y="322"/>
      <point x="270" y="319"/>
    </contour>
  </outline>
</glyph>
<glyph name="Eacute" format="2">
  <advance width="715"/>
  <unicode hex="00C9"/>
  <outline>
    <contour>
      <point x="462" y="45" type="line"/>
      <point x="466" y="45"/>
      <point x="470" y="46"/>
      <point x="474" y="47" type="curve"/>
      <point x="478" y="49"/>
      <point x="481" y="52"/>
      <point x="484" y="55" type="curve"/>
      <point x="487" y="58"/>
      <point x="489" y="61"/>
      <point x="490" y="65" type="curve"/>
      <point x="490" y="65"/>
      <point x="492" y="71"/>
      <point x="492" y="77" type="curve"/>
      <point x="490" y="213" type="line"/>
      <point x="676" y="213" type="line"/>
      <point x="693" y="213"/>
      <point x="708" y="227"/>
      <point x="708" y="245" type="curve"/>
      <point x="708" y="262"/>
      <point x="693" y="277"/>
      <point x="676" y="277" type="curve"/>
      <point x="489" y="277" type="line"/>
      <point x="486" y="421" type="line"/>
      <point x="486" y="439"/>
      <point x="472" y="453"/>
      <point x="454" y="453" type="curve"/>
      <point x="435" y="453"/>
      <point x="422" y="438"/>
      <point x="422" y="420" type="curve"/>
      <point x="425" y="277" type="line"/>
      <point x="36" y="277" type="line"/>
      <point x="18" y="277"/>
      <point x="4" y="262"/>
      <point x="4" y="245" type="curve"/>
      <point x="4" y="227"/>
      <point x="18" y="213"/>
      <point x="36" y="213" type="curve"/>
      <point x="266" y="213" type="line"/>
      <point x="439" y="53" type="line"/>
      <point x="442" y="50"/>
      <point x="446" y="48"/>
      <point x="450" y="47" type="curve"/>
      <point x="450" y="47"/>
      <point x="454" y="45"/>
      <point x="458" y="45" type="curve"/>
    </contour>
    <contour>
      <point x="427" y="151" type="line"/>
      <point x="360" y="213" type="line"/>
      <point x="426" y="213" type="line"/>
    </contour>
  </outline>
</glyph>
<glyph name="eacute" format="2">
  <advance width="772"/>
  <unicode hex="00E9"/>
  <outline>
    <contour>
      <point x="484" y="44" type="line"/>
      <point x="488" y="44"/>
      <point x="492" y="45"/>
      <point x="496" y="46" type="curve"/>
      <point x="500" y="48"/>
      <point x="503" y="51"/>
      <point x="506" y="54" type="curve"/>
      <point x="509" y="57"/>
      <point x="511" y="60"/>
      <point x="512" y="64" type="curve"/>
      <point x="512" y="64"/>
      <point x="514" y="70"/>
      <point x="514" y="76" type="curve"/>
      <point x="512" y="212" type="line"/>
      <point x="698" y="212" type="line"/>
      <point x="715" y="212"/>
      <point x="730" y="226"/>
      <point x="730" y="244" type="curve"/>
      <point x="730" y="261"/>
      <point x="715" y="276"/>
      <point x="698" y="276" type="curve"/>
      <point x="511" y="276" type="line"/>
      <point x="508" y="420" type="line"/>
      <point x="508" y="438"/>
      <point x="494" y="452"/>
      <point x="476" y="452" type="curve"/>
      <point x="457" y="452"/>
      <point x="444" y="437"/>
      <point x="444" y="419" type="curve"/>
      <point x="447" y="276" type="line"/>
      <point x="58" y="276" type="line"/>
      <point x="40" y="276"/>
      <point x="26" y="261"/>
      <point x="26" y="244" type="curve"/>
      <point x="26" y="226"/>
      <point x="40" y="212"/>
      <point x="58" y="212" type="curve"/>
      <point x="288" y="212" type="line"/>
      <point x="461" y="52" type="line"/>
      <point x="464" y="49"/>
      <point x="468" y="47"/>
      <point x="472" y="46" type="curve"/>
      <point x="472" y="46"/>
      <point x="476" y="44"/>
      <point x="480" y="44" type="curve"/>
    </contour>
    <contour>
      <point x="427" y="151" type="line"/>
      <point x="360" y="213" type="line"/>
      <point x="426" y="213" type="line"/>
    </contour>
  </outline>
</glyph>
<glyph name="ntilde" format="2">
  <advance width="845"/>
  <unicode hex="00F1"/>
  <outline>
    <contour>
      <point x="632" y="83" type="line"/>
      <point x="644" y="83"/>
      <point x="657" y="90"/>
      <point x="665" y="101" type="curve"/>
      <point x="693" y="143"/>
      <point x="703" y="184"/>
      <point x="703" y="221" type="curve"/>
      <point x="703" y="238"/>
      <point x="701" y="255"/>
      <point x="697" y="270" type="curve"/>
      <point x="808" y="270" type="line"/>
      <point x="808" y="272" type="line"/>
      <point x="831" y="272"/>
      <point x="850" y="290"/>
      <point x="850" y="316" type="curve"/>
      <point x="850" y="342"/>
      <point x="831" y="362"/>
      <point x="808" y="362" type="curve"/>
      <point x="481" y="362" type="line"/>
      <point x="459" y="362"/>
      <point x="440" y="342"/>
      <point x="440" y="316" type="curve"/>
      <point x="440" y="290"/>
      <point x="458" y="272"/>
      <point x="481" y="272" type="curve"/>
      <point x="610" y="272" type="line"/>
      <point x="615" y="260"/>
      <point x="621" y="243"/>
      <point x="621" y="222" type="curve"/>
      <point x="621" y="207"/>
      <point x="618" y="191"/>
      <point x="610" y="174" type="curve"/>
      <point x="491" y="174" type="line"/>
      <point x="185" y="356" type="line"/>
      <point x="178" y="359"/>
      <point x="171" y="362"/>
      <point x="165" y="362" type="curve"/>
      <point x="42" y="362" type="line"/>
      <point x="20" y="362"/>
      <point x="1" y="342"/>
      <point x="1" y="316" type="curve"/>
      <point x="1" y="292"/>
      <point x="20" y="272"/>
      <point x="42" y="272" type="curve"/>
      <point x="155" y="272" type="line"/>
      <point x="462" y="89" type="line"/>
      <point x="468" y="85"/>
      <point x="474" y="83"/>
      <point x="482" y="83" type="curve"/>
    </contour>
  </outline>
</glyph>
<glyph name="Eng" format="2">
  <advance width="836"/>
  <unicode hex="014A"/>
  <outline>
    <contour>
      <point x="795" y="102" type="curve"/>
      <point x="475" y="102" type="line"/>
      <point x="452" y="102"/>
      <point x="433" y="121"/>
      <point x="433" y="147" type="curve"/>
      <point x="433" y="171"/>
      <point x="451" y="190"/>
      <point x="475" y="190" type="curve"/>
      <point x="600" y="190" type="line"/>
      <point x="605" y="202"/>
      <point x="610" y="219"/>
      <point x="610" y="239" type="curve"/>
      <point x="610" y="253"/>
      <point x="608" y="269"/>
      <point x="600" y="286" type="curve"/>
      <point x="483" y="286" type="line"/>
      <point x="183" y="108" type="line"/>
      <point x="178" y="104"/>
      <point x="171" y="102"/>
      <point x="164" y="102" type="curve"/>
      <point x="44" y="102" type="line"/>
      <point x="20" y="102"/>
      <point x="3" y="121"/>
      <point x="3" y="147" type="curve"/>
      <point x="3" y="171"/>
      <point x="20" y="190"/>
      <point x="44" y="190" type="curve"/>
      <point x="154" y="190" type="line"/>
      <point x="454" y="368" type="line"/>
      <point x="461" y="373"/>
      <point x="468" y="375"/>
      <point x="475" y="375" type="curve"/>
      <point x="622" y="375" type="line"/>
      <point x="634" y="375"/>
      <point x="646" y="368"/>
      <point x="653" y="356" type="curve"/>
      <point x="681" y="315"/>
      <point x="692" y="275"/>
      <point x="692" y="238" type="curve"/>
      <point x="692" y="221"/>
      <point x="689" y="205"/>
      <point x="686" y="190" type="curve"/>
      <point x="795" y="190" type="line"/>
      <point x="816" y="190"/>
      <point x="835" y="171"/>
      <point x="835" y="147" type="curve"/>
      <point x="835" y="121"/>
      <point x="816" y="102"/>
    </contour>
  </outline>
</glyph>
